<svg width="20" height="24" fill="none" xmlns="http://www.w3.org/2000/svg"><path d="M8.887.428c-.021-.109.068-.197.068-.285-.074.005-.068.114-.12.145-.006-.062-.022-.083 0-.135-.106.01-.1.15-.19.176-.02-.01.005-.041-.02-.046-.032.046-.048.109-.022.166a.062.062 0 0 1-.047.047C8.519.63 8.462.74 8.43.885c-.031.13-.063.301-.09.436a.566.566 0 0 0-.01.094c0 .015 0 .026-.005.041a.11.11 0 0 1-.058.042c.016-.042.08-.094.058-.13-.031.01-.052.057-.09.052-.03-.026 0-.057.017-.089-.021-.02-.021.01-.042.006-.006-.01.015-.026 0-.037a.51.51 0 0 0-.09.094c-.01 0-.015-.005-.031-.01-.12.072-.215.228-.33.332-.022-.047-.053.005-.074-.037-.042.016-.016.057-.037.083-.01.01-.032-.01-.047 0-.095.125-.21.234-.3.364-.215.306-.435.612-.66.93l-.158.217c-.074.104-.137.213-.216.317-.126.171-.252.337-.351.493-.368.56-.777 1.07-1.17 1.589-.074-.005-.053.088-.1.135-.022.015-.043.015-.053.031-.01.016-.005.036-.016.057-.02.042-.063.073-.073.11-.01.015-.037 0-.048.015.011.02-.01.057-.02.078-.032.046-.085.083-.11.14-.08-.01-.08.083-.1.12-.053.087-.153.176-.205.254-.12.192-.289.347-.41.534-.052.01-.068.078-.105.13-.02.026-.052.047-.068.073-.273.4-.635.747-.855 1.132a1.202 1.202 0 0 0-.268.29c-.09.14-.226.26-.278.41-.058-.005-.048.047-.069.078-.02.026-.068.031-.063.073-.105.026-.157.171-.23.239-.011.015.005.026 0 .041-.08.021-.106.11-.148.15.016.094-.094.126-.12.209-.026-.01-.037.005-.047.026-.011-.01-.021-.016-.027-.016-.01.016-.005.036-.015.052-.053-.02-.074.062-.053.088-.037-.005-.052.042-.052.068-.011.015-.037-.021-.048-.005.016.015.027.03.021.046-.005.021-.02 0-.026.016-.005.041-.068.078-.09.114-.03 0-.083.01-.099.052-.01.01.032.02.021.031-.01.01-.01.016-.01.026-.021.005-.027-.036-.042-.02-.016.02.031.04.015.062-.015.01-.042-.01-.057 0 .031.062-.053.083-.074.135-.016.036 0 .067-.02.098-.027 0-.011-.02-.038-.026-.015.037-.042.047-.068.073.016.02.037-.01.042.02a.33.33 0 0 0-.105.14c.047.027.042-.03.058-.04.042.02-.005.04-.01.056-.095.135-.2.224-.295.353-.01.006-.026-.01-.031.01.016.011.005.027.026.037.047-.047.126-.109.168-.166.021-.031.021-.093.079-.057 0 .073-.12.109-.126.176.02.016.037-.015.047.01.01.048-.063.032-.052.074.015.005.02-.032.042-.021-.006.104-.142.109-.147.202.073-.02.115-.155.189-.166-.01.026.005.052-.006.073-.115.098-.21.202-.31.327.095-.073.18-.197.3-.218-.01-.01-.016-.02-.016-.031.037.01.068-.016.105-.026 0-.026-.016-.057 0-.083.021-.005.037.026.053.026-.01-.052.042-.083.089-.078.01-.021.01-.042.026-.057-.02-.016-.031-.016-.026-.037.031-.052.073-.057.09-.104.01-.01.025.01.036.006.01-.026-.005-.052.031-.078.027.015.048.01.074.02.005-.057.047-.088.068-.124.063 0 .074-.042.12-.068.006.037-.025.068 0 .104-.01.021-.03-.015-.046-.005-.032.031 0 .062-.042.088-.016 0-.016-.02-.032-.02-.037.057-.09.083-.105.14.01 0 .016-.01.032.005-.037.015-.027.031-.042.062-.016.016-.037.016-.053.026.005.052-.052.047-.068.068-.021.02-.021.078-.063.093-.016-.01-.01-.015-.021-.026-.021.031-.053.031-.074.063.006.026.027-.01.042.005.021.026.048.062.01.078-.01-.01 0-.021-.015-.026-.031.02-.047-.021-.073-.01-.016.015.026.036.005.051-.032.062-.09.078-.116.14-.031 0-.1.068-.078.099a.318.318 0 0 0 .1-.104c.02.005.062.01.068-.026-.01.016-.037.016-.042 0 .036-.036.063-.005.105-.026.026.031-.021.042-.037.057-.032.026-.063.068-.09.089-.03.026-.047.062-.078.093-.037.036-.1.052-.105.104.042.005.047-.062.084-.057.016.005.047.036.031.052-.015.005-.031.01-.052-.01-.016.077-.137.108-.131.186-.01.005-.027-.015-.037.005-.005.016.031.01.016.026-.016.01-.042-.03-.053-.005.026.031.005.068-.016.099.048-.026.11-.057.137-.104.037.02.042-.052.084-.026a6.76 6.76 0 0 1-.341.327c.094 0 .152-.156.252-.109-.048.078-.132.14-.19.197 0 .016.032.01.027.026.005.037-.032.031-.053.063 0 .01.037-.01.037.015-.037.031-.073.052-.105.078.042.026.063-.057.11-.031.006.015-.026.026-.015.041.015 0 .026-.01.042.01-.053.073-.121.073-.19.146.048.026.037.057.085.088-.021.016-.058.047-.095.073.01.026.005.037.026.057-.01.005-.02.005-.031.016.01.01.026.01.021.026-.01.026-.042.01-.042.041.031.031.047-.026.079.005-.006.021-.037.032-.032.058-.016 0-.057 0-.042.03.026-.004.047-.036.084-.01.01.032-.01.052-.037.073.006.01.032.02.027.026-.01.016-.021.01-.032.026.026.026 0 .052.053.078.036.005.063-.037.1-.02-.037.067-.137.051-.179.093.058.046.1-.01.157.01-.02.036-.02.052-.063.062.084.068.142-.005.22.037.011.02-.025.015-.004.036.042 0 .084-.02.089-.068.016-.01.037-.005.058.01.089-.04.178-.056.267-.103.084-.042.184-.104.263-.156a.18.18 0 0 0 .047-.041c.047-.042.063-.042.105-.063.1-.057.163-.181.273-.233.042-.114.21-.192.304-.307.105-.13.237-.244.357-.379.179-.202.389-.415.546-.597.1-.114.19-.228.289-.332.01-.015-.005-.026.005-.041a.214.214 0 0 0 .095-.11c.073-.03.115-.13.173-.197.052-.062.136-.109.142-.187.047-.005.052-.046.078-.078.084-.098.19-.202.268-.306.058-.072.11-.166.179-.228.015-.016.031-.021.042-.037.01-.02.005-.046.015-.062.016-.031.042-.031.074-.062.031-.026.047-.073.079-.094-.021-.03.02-.103.063-.093.01-.016-.006-.026.005-.042.12-.078.252-.264.315-.363-.01-.02-.037 0-.032-.016.026-.036.09-.062.116-.124a.378.378 0 0 0 .13-.11c.09-.134.21-.264.3-.378 0-.01-.005-.026.005-.037.037-.03.032-.062.069-.103.063 0 .12-.11.126-.167.015 0 .031 0 .042-.015.01-.083.084-.135.147-.203.02-.02.026-.052.036-.072.027-.042.058-.063.084-.094.01-.015.016-.041.027-.057.036-.047.1-.073.105-.145.057-.021.068-.083.1-.13.041-.057.104-.104.141-.161.005-.005 0-.02.005-.026.016-.02.047-.026.063-.047.037-.041.047-.098.068-.14.048-.026.063-.078.095-.124.01.01.02.01.026.015.005-.062.09-.104.095-.166.01-.01.026-.01.042-.016 0-.041.031-.046.057-.083.006-.015 0-.026.006-.041.11-.14.21-.234.31-.4.015-.01.036-.01.052-.016.068-.109.115-.254.226-.327 0-.01-.006-.026.01-.036.01-.01.026.01.037-.005.016-.016-.01-.026.005-.042.047-.015.063-.083.095-.124.036-.047.073-.083.105-.13.01-.01.026-.005.036-.02 0-.068.095-.079.079-.151.047.015.058-.037.058-.068.01-.005.026.01.031-.01-.005-.052.074-.068.058-.12.01-.01.026.016.031-.005.042-.093.116-.16.19-.26.068-.088.089-.212.167-.254.006-.01-.005-.02 0-.036.016 0 .027-.016.042-.016.027-.062.121-.13.132-.207.078-.1.178-.229.225-.343.016-.005.021-.01.027-.02v.186c0 .228.01.452 0 .67 0 .026.02.026.02.052a.509.509 0 0 0 0 .218c-.036.104 0 .27 0 .394 0 .125-.03.26.011.353-.031.052-.005.104-.005.166 0 .193-.01.416-.005.613.005.145.02.301.015.441 0 .032-.01.052-.01.078.005.037.026.063.026.083.005.052-.01.078-.016.14-.005.063.01.13 0 .187.037.021.053.14.01.172 0 .026.022.026.022.052-.042.207-.021.55-.01.727.02.01.026-.037.036-.01.005.061-.031.155-.01.259a.788.788 0 0 0-.032.254c.016.244.005.509.01.732.006.016.022.02.022.047-.01.073.015.104.01.187-.052.057-.026.244.005.316-.01.016-.02.032-.02.058.047.109.015.238.01.379 0 .046.016.083.016.124.005.078-.006.125-.006.187 0 .031.016.062.016.094 0 .088-.031.181.01.27-.036.077 0 .16 0 .254.006.109-.02.218-.015.322 0 .015.01.026.016.036.005.042-.021.073-.021.11 0 .082.02.16.031.233-.021.078 0 .156 0 .234-.016 0-.026 0-.031.01.036.078-.006.207.026.29-.005.021-.016.037-.021.058.026.052 0 .083.005.15.005.021.016.031.021.057 0 .27-.026.478 0 .763a.178.178 0 0 1-.037.063c.016.197.063.415.021.607.01.01.016.026.016.057 0 .021-.031.01-.026.042-.005.036.02.026.02.057-.03.062 0 .161 0 .234 0 .083-.01.166-.004.254-.006.02-.016.031-.016.057.042.083-.032.182.026.26-.047.02-.026.093-.01.135-.006.015-.027.01-.016.041.031.063-.021.15.026.198 0 .02-.031.005-.026.03.02.151.005.302.005.489 0 .171.058.342.016.462.005.02.02.02.02.046-.01.016-.015.042-.02.058.016.104-.021.264.016.368-.006.187-.016.436.02.623-.02.037 0 .068-.015.11.016.015.016.056.026.077-.031.213-.026.52-.021.774.026.711.01 1.412-.016 2.113-.02.67-.1 1.324-.073 1.988.026.037.026.13.026.166.01.021.032.037.058.037.052-.083.094.02.157.02.058 0 .09-.088.137-.13.026-.025.068-.02.1-.04.047-.032.041-.094.078-.12.053-.005.063-.057.116-.057.01-.031 0-.083.026-.094.047.037.052-.03.094-.041.09.052.22-.042.284.036.005-.015.01-.026.031-.026.01.01.016.031.032.036.005-.015.01-.03.031-.03.016.025.021.067.058.062.032.005.021-.042.047-.042.1.005.142-.052.205-.109.032-.01.037.036.058.016.005-.026-.01-.089.016-.11.036.021.036.047.084.021.026.021.015.083.047.094.031-.037-.026-.15.026-.177.016.01.005.052.026.052-.005-.145.032-.239.037-.374.005.052 0 .115.021.14.026-.088 0-.233.047-.3.01.072-.01.186.027.218.02-.042.01-.115.047-.146.042.005.031.078.037.135.031.01.01-.036.031-.041.01.01 0 .046.021.046.01-.062.021-.124.021-.197.005-.005.016-.01.032-.01.062-.193.052-.478.083-.707.042.042.042-.051.08-.01.02-.057-.022-.088-.017-.14.006-.02.032-.016.037-.042.005-.244.037-.477.042-.726.005-.577.005-1.169.005-1.766v-.415c0-.197-.01-.395-.01-.592 0-.327.005-.654-.005-.934-.037-1.039-.016-2.046-.021-3.053.057-.062-.016-.161 0-.26.005-.041.02-.057.02-.088 0-.026-.015-.057-.02-.088-.01-.073.005-.15-.006-.203 0-.036.032-.03.032-.062-.021-.02-.026-.078-.026-.12-.006-.082.015-.181 0-.275.068-.057.01-.176.005-.244-.016-.16.01-.358.005-.503-.02-.353.016-.701-.016-1.049.032-.062 0-.16 0-.26 0-.052.01-.103.006-.15-.037-.753.015-1.516-.058-2.201.026-.182.037-.405.016-.613-.021-.26.005-.53-.048-.768.048-.052.006-.104 0-.156 0-.052.032-.104 0-.15.063-.13.01-.359.021-.515 0-.026-.02-.026-.026-.046.047-.1.01-.234.016-.322-.058-.073-.032-.177-.032-.276l.021.021v.031h.027v-.005c.136.135.273.265.393.374.52.452.987.94 1.46 1.412-.01.073.084.068.12.12.016.02.01.041.027.057.01.01.036.015.052.026.042.026.068.078.1.093.016.016-.005.036.01.052.027-.005.058.016.074.036.042.037.073.094.131.13-.026.078.073.094.11.12.084.067.158.181.231.244.179.15.31.347.488.493.006.052.074.078.121.124.026.026.042.058.063.078.367.338.672.748 1.034 1.034.063.108.152.223.257.316.132.114.231.265.378.348-.01.057.042.052.068.078.027.026.021.073.063.078.011.109.153.182.21.27.011.015.027 0 .043.005.01.078.094.125.13.171.095 0 .116.12.195.156-.016.026 0 .036.02.052a.092.092 0 0 0-.02.026c.016.015.031.01.047.026-.031.047.053.083.079.067-.01.037.037.057.063.063.01.015-.026.03-.01.046.015-.015.036-.02.052-.01s0 .02.01.031c.042.01.069.083.105.11-.005.035 0 .087.037.103.01.01.026-.031.037-.016.005.01.016.016.02.016.006.02-.041.016-.025.036.02.021.047-.02.063-.005.005.02-.016.037-.006.057.069-.02.08.068.126.099.032.02.069.01.095.041-.005.026-.026.006-.032.032.032.025.037.051.069.083.02-.016-.006-.037.026-.037a.376.376 0 0 0 .126.13c.031-.041-.026-.047-.032-.062.032-.037.042.01.053.02.126.12.194.234.315.348 0 .01-.016.021.005.032.016-.016.026-.006.042-.021-.042-.052-.09-.146-.142-.192-.026-.026-.089-.037-.047-.088.073.01.09.14.163.155.02-.015-.01-.041.02-.046.048 0 .027.067.069.067.005-.016-.032-.026-.016-.042.1.026.084.161.184.182-.01-.072-.137-.145-.142-.218.026.01.053.005.074.016.078.13.173.244.283.363-.063-.104-.178-.213-.173-.332-.01.01-.026.015-.032.01.021-.036-.005-.073-.01-.109-.026-.005-.058.005-.084-.015-.005-.021.031-.031.037-.047-.058 0-.08-.057-.069-.104-.02-.016-.036-.02-.057-.031-.021.02-.021.031-.042.02-.047-.036-.047-.082-.09-.108-.005-.01.016-.026.011-.037-.026-.015-.053-.005-.073-.046.02-.026.02-.047.031-.068-.058-.016-.079-.062-.115-.093.01-.063-.032-.084-.053-.13.037 0 .063.036.105.02.021.016-.021.032-.01.047.026.037.063.01.084.057 0 .016-.022.01-.027.032.053.046.069.098.126.124 0-.01-.01-.02.01-.026.011.037.027.031.058.052.01.02.01.037.016.057.053.005.042.057.058.083.016.021.073.037.084.083-.01.016-.016.006-.026.016.026.026.02.057.052.088.026 0-.005-.026.016-.041.026-.016.073-.037.079.005-.01.005-.021-.005-.032.01.016.037-.026.047-.02.068.015.02.036-.021.052 0 .057.041.068.104.126.14-.006.026.052.109.089.099a.44.44 0 0 0-.09-.12c.006-.02.022-.057-.015-.072.016.01.01.036-.005.041-.032-.041.005-.062-.01-.109.036-.02.036.031.052.047.02.036.057.072.078.104.021.036.058.057.084.093.032.042.037.109.095.12.01-.042-.053-.058-.042-.094.005-.016.042-.036.058-.02.005.015.005.03-.016.046.079.026.09.15.173.166.005.01-.021.026 0 .036.016.006.016-.026.031-.01.011.016-.036.036-.01.052.037-.02.068.01.095.036-.021-.052-.043-.12-.09-.155.026-.037-.047-.047-.01-.089.094.125.194.265.278.4.01-.088-.131-.176-.074-.27.069.062.127.156.174.223.015.005.015-.026.031-.02.037.005.032.036.058.062.01.005-.005-.037.021-.031.026.041.042.078.063.12.031-.037-.047-.074-.016-.115.016-.005.021.031.037.026 0-.016-.005-.026.016-.042.063.063.057.135.115.213.032-.041.063-.026.1-.067.016.026.037.067.063.109.026-.005.042.005.058-.016.005.01.005.02.01.031.01-.01.01-.026.026-.015.027.015.006.046.032.046.037-.026-.021-.052.016-.078.02.006.026.042.052.042 0 .016-.005.057.026.047 0-.026-.031-.057 0-.083.032-.005.048.015.069.046.01-.005.026-.026.031-.02.016.01.005.026.021.036.032-.02.053.01.084-.036.01-.037-.026-.068-.01-.104.063.047.031.145.068.192.052-.052.005-.104.031-.15.032.03.048.03.053.072.079-.073.015-.14.073-.213.021-.01.01.026.037.01.005-.04-.01-.088-.052-.098-.006-.02 0-.036.015-.057-.026-.094-.031-.187-.068-.286a3.236 3.236 0 0 0-.115-.285c-.01-.016-.021-.042-.032-.057-.037-.052-.031-.073-.047-.115-.042-.109-.158-.192-.194-.311-.11-.062-.168-.244-.268-.353-.116-.125-.21-.28-.33-.42a272.03 272.03 0 0 0-.53-.65c-.1-.119-.206-.228-.3-.342-.01-.016-.026 0-.042-.016a.262.262 0 0 0-.1-.114c-.02-.078-.12-.14-.173-.203-.058-.062-.095-.155-.168-.176 0-.052-.042-.057-.068-.088-.09-.099-.179-.224-.273-.317-.069-.068-.152-.14-.21-.213-.01-.015-.016-.036-.027-.047-.02-.015-.047-.015-.057-.026-.032-.02-.026-.046-.053-.083-.026-.036-.068-.057-.084-.093-.036.015-.1-.036-.089-.078-.01-.01-.026 0-.042-.016-.063-.135-.236-.29-.325-.373-.021.01-.006.036-.021.03-.032-.03-.053-.098-.11-.14a.389.389 0 0 0-.095-.145c-.126-.114-.236-.254-.346-.358-.011-.005-.027 0-.037-.01-.026-.042-.063-.042-.095-.083.01-.063-.094-.14-.147-.156 0-.016 0-.031-.01-.042-.084-.02-.12-.109-.184-.181-.02-.021-.047-.032-.068-.052-.042-.032-.053-.068-.084-.099-.016-.016-.042-.02-.053-.036-.042-.042-.063-.11-.13-.125-.011-.062-.074-.083-.122-.125-.052-.051-.089-.119-.141-.17-.006-.006-.021-.006-.027-.011-.02-.016-.02-.052-.036-.068-.037-.041-.095-.062-.137-.093-.02-.052-.073-.078-.11-.114.01-.01.016-.016.016-.026-.063-.016-.095-.104-.158-.125-.01-.016-.005-.031-.01-.042-.042-.01-.042-.041-.074-.067-.016-.01-.026-.005-.042-.01-.13-.13-.21-.25-.367-.374-.005-.021-.005-.037-.005-.057-.105-.083-.247-.15-.305-.28-.01 0-.026 0-.037-.016-.01-.01.016-.026-.005-.037-.01-.02-.026.006-.042-.01-.01-.052-.079-.073-.115-.114-.042-.042-.074-.088-.121-.125-.005-.01-.005-.026-.016-.036-.068-.01-.068-.11-.147-.104.021-.042-.031-.062-.058-.067-.005-.01.011-.021-.005-.032-.052-.005-.063-.083-.11-.078-.01-.01.016-.025 0-.03-.09-.058-.147-.14-.241-.23-.084-.082-.205-.119-.237-.207-.01-.005-.026.005-.036-.005 0-.016-.01-.031-.01-.042-.064-.036-.116-.14-.195-.16a1.57 1.57 0 0 0-.315-.276c-.005-.03-.031-.03-.042-.062-.021.005-.037-.015-.058-.015a2.048 2.048 0 0 0-.346-.364 6.22 6.22 0 0 1-.877-.966c-.152-.212-.273-.436-.388-.643.068-.089.126-.182.184-.276-.011-.036.02-.083.041-.103 0-.021-.01-.037-.036-.052-.079.02-.074-.063-.126-.094-.053-.03-.11.005-.163 0-.031 0-.068-.026-.1-.03-.052-.006-.068.03-.11.025-.031-.016-.058-.01-.084-.016.005-.062.005-.119.01-.176a.374.374 0 0 0-.041.171c-.006 0-.006 0-.006-.005-.02.016-.031.047-.057.036-.006-.005-.006-.01-.01-.01 0-.083.004-.16.01-.228-.01-.021-.027.015-.037-.006-.026-.041 0-.072-.005-.124-.006-.016-.016.047-.037.015.005-.067.016-.135.026-.197-.047.016-.01.13-.058.145-.015-.01 0-.057-.015-.062-.01.016-.01.037-.037.031-.01-.135.042-.207.037-.358-.053.02-.069-.031-.121-.02.005-.047.016-.11.02-.182-.025-.021-.03-.042-.057-.037a.15.15 0 0 0 .01-.046c-.015.005-.026.015-.03-.006-.011-.041.02-.057.004-.088-.047-.005-.015.078-.063.073-.01-.026.006-.068-.015-.094.01-.015.042-.062.01-.078-.016.032-.01.094-.052.1-.027-.027-.027-.068-.021-.12-.01-.005-.037.01-.037-.005-.005-.032.01-.037.005-.063-.037 0-.037-.057-.09-.036-.099-.01-.094.062-.13.088ZM.593 11.445c.01-.041.047-.041.079-.078-.005.037-.047.078-.079.078Zm.053-.083c-.021-.016.005-.031.015-.031.021.01 0 .036-.015.031Zm.036-.192c.021.01 0 .041-.015.031-.021-.005.01-.031.015-.031Zm.216-.02-.048.056c-.02-.005-.02-.02-.042-.02-.01.01.021.02.021.036-.026.036-.057.052-.084.093a.111.111 0 0 1-.052-.02c.005-.006 0-.01.005-.016.032.01.116-.026.084-.073.037-.01.021-.062.058-.062.01.005.01.015.005.026.021-.01.032-.047.053-.02Zm-.153-.022c-.015.021-.026.037-.047.037-.016-.021.026-.052.047-.037Zm.237-.078c-.01.021-.016.021-.032.042-.031-.01-.031-.047-.005-.073l.037.031Zm-.494 2.16c-.01.016-.026.026-.042.01.01-.02.026-.025.042-.01Zm-.457-.005c.016-.02.032-.02.053-.005 0 .02-.032.02-.053.005Zm.473-.015c-.005-.026.047-.063.073-.068.021.031-.047.057-.073.068Zm-.389-.198c-.01-.036.053-.03.053.005-.016.01-.032.01-.053-.005Zm.436.005c.021.021-.005.037-.02.037-.006-.01.004-.042.02-.037Zm.284-.067c-.048.042-.09.12-.153.104.048-.042.08-.068.126-.114.01 0 .016.005.027.01Zm.063-.068c-.01.01-.021.037-.037.037-.01-.01-.01-.026-.01-.037.01-.005.026-.015.047 0Zm.068-.072c.005-.016.016-.01.026-.021.01.01-.005.041-.026.02Zm-.698-.016.01.01c-.005.006 0 .006 0 .011l-.005.005c-.005-.005-.005 0-.01 0l-.011-.01c.005-.005 0-.005 0-.01l.005-.006c.005.005.005 0 .01 0Zm-.032-.104c.01.016-.016.021-.02.026-.027-.015.01-.036.02-.026Zm1.312-.451c-.005.026-.042.062-.073.03.005-.036.052-.036.073-.03Zm-1.076.02c0 .01 0 .016-.01.026-.021-.005-.005-.041.01-.026Zm-.089-.01c-.026-.015-.02-.031-.005-.036.016.015.016.026.005.036Zm1.066-.073c-.006-.015.01-.01.02-.015.011.01-.005.036-.02.015Zm-.798-.415c-.016-.016.016-.047.031-.026.006.01-.015.026-.031.026Zm.068-.067c-.01.02-.02.02-.031.03-.016-.01.015-.051.031-.03Zm.01-.115c.006-.015.011-.036.032-.01-.01.01-.02.026-.031.01Zm.085-.005a1.17 1.17 0 0 1 .073-.078c.01.037-.037.078-.073.078Zm.115-.12c.01-.01.016-.025.032-.025.026.026-.006.046-.032.026Zm.257-.27c-.005.011-.01.037-.031.016 0-.01.016-.026.031-.015Zm.063-.062c-.01-.015.006-.026.016-.03.016.01-.005.03-.016.03Zm.126-.28c-.01.02-.02.016-.036.016-.016-.016.005-.042.02-.042l.016.026Zm-.603.042c-.01-.01 0-.021-.01-.026.025-.01.052-.042.078-.057.005.036-.047.062-.068.083Zm.65-.14.011-.016c.021.01.005.031-.01.015Zm1.407-.11c-.01.016-.02.021-.036.006.01-.006.02-.016.036-.006Zm-1.275.01a.04.04 0 0 1 .02.011l-.01.01c-.016-.02-.026-.025-.042-.015-.01.016-.005.026.016.041-.021-.01-.037-.01-.058-.02.026-.052.063-.104.116-.114.036.041-.058.051-.042.088Zm-.01-.082c-.011.02-.038-.005-.022-.016.016.01.016 0 .021.016Zm.094-.026c-.01.01-.021.01-.032 0-.005-.016.01-.021.032 0Zm-.42-.15c-.01.004-.01.025-.026.02-.016-.01.015-.042.026-.02Zm.672-.157c0 .021-.032.026-.048.042-.015-.02.01-.047.032-.052l.016.01Zm-.546-.192c.005-.01.01-.015.02-.015.011.01-.004.036-.02.015Zm.31-.015-.016-.01c0-.047.057-.006.015.01Zm-.142.01c-.016-.02.015-.031.026-.041.005.015-.01.036-.026.041Zm-.037-.052c-.016-.02.01-.052.031-.052.016.016-.015.047-.031.052Zm.068-.088c.005.02-.016.026-.031.026-.016-.01-.01-.026 0-.042.01.01.02.006.031.016Zm7.354-3.375c-.005-.026 0-.046.026-.041-.005.02-.005.041-.026.041Zm1.302-.384h.021c.026.052-.047.052-.021 0Zm.194.031c-.01.005-.016.016-.031.016-.016-.02 0-.047.005-.062.02 0 .026.02.026.046Zm7.081 6.692c.016-.015.037.01.032.021-.021.021-.032-.005-.032-.02Zm.11.089c-.041-.016-.036-.052-.063-.089.032.006.069.058.063.089Zm-.299-.203c.016.016.032.031.032.052-.026.005-.047-.036-.032-.052Zm.037.063c.016-.016.042.01.032.02-.016.021-.037-.01-.032-.02Zm.053-.161c-.006.02-.027.015-.027.036.01.01.027-.016.037-.016.031.031.047.063.079.099a.122.122 0 0 1-.032.047c-.005-.005-.01-.005-.015-.005.015-.032-.006-.115-.064-.094-.01-.036-.057-.031-.057-.067.01-.01.015-.01.026 0 0-.016-.031-.032-.005-.052l.058.052Zm-.352.026c-.01.005-.021 0-.032.005-.005-.031-.036-.057-.047-.088.037 0 .058.057.079.083Zm.252-.14c-.016.025-.053.025-.074-.006l.037-.03c.021.015.026.015.037.035Zm.614.41c-.016.01-.042-.021-.021-.037.016 0 .026.021.02.037Zm.457.347c-.021.021-.032.016-.037-.005.016-.005.026-.005.037.005Zm.934.525c-.016-.016-.016-.037.005-.052.021 0 .016.036-.005.052Zm-.2-.12c-.036.006-.02-.057.01-.052.011.016.011.037-.01.052Zm-.283-.15c-.026.02-.037-.016-.026-.026.015-.01.02.015.026.026Zm.1-.047.005.005c-.005.005-.005.005 0 .01l-.01.011c0-.005-.006 0-.011 0l-.005-.005c.005-.005.005-.005 0-.01l.01-.01c.006.004.01 0 .01 0Zm.462-.093c-.016-.016-.021-.031-.006-.047.016.02.021.036.006.047Zm-.021-.063c-.027 0-.058-.057-.058-.083.037-.015.052.057.058.083Zm-.158-.052c-.01.006-.037-.015-.031-.025.02-.021.031.01.031.025Zm-.787-.067c-.01.02-.042-.005-.021-.016.01 0 .016.006.02.016Zm.813-.083c-.036-.052-.057-.088-.1-.146 0-.005.006-.015.016-.02.037.052.11.109.084.166Zm-.11-.197c-.016.01-.026.005-.037.005-.01-.016-.015-.031.006-.047.01.01.031.026.031.042Zm-1.233-.042c-.016.01-.053-.026-.027-.042.016.016.016.032.027.042Zm1.139-.088c-.016-.01-.01-.021-.016-.026.01-.005.037.01.016.026Zm-1.286.02c-.016-.005-.032-.02-.006-.036.01.016.027.026.006.037Zm.01-.088a2.53 2.53 0 0 1-.068-.083c.037-.005.073.052.068.083Zm-.1-.13c-.01-.01-.026-.02-.026-.036.032-.02.047.016.026.037Zm-.225-.27c-.016 0-.026-.02-.01-.03.01.005.03.01.01.03Zm-.1-.124c.016-.01.032.01.032.02-.016.006-.027-.01-.032-.02Zm1.118-.016c.016-.01.032.01.01.026-.015-.005-.01-.015-.01-.026Zm.105.005c-.032-.01-.026-.051-.016-.077.027.015.058.057.016.078Zm-1.926-.041c-.016.02-.037-.02-.016-.026 0 .005.026.016.016.026Zm.477-.062c-.02.015-.042-.01-.037-.031.011-.006.016-.006.027-.01.015.01.015.025.01.04Zm-.105-.104-.015-.016c.015-.02.036 0 .015.016Zm-.813-.223c.015-.01.047.026.047.041-.021.01-.047-.02-.047-.041Zm.63.088c.01-.01.005-.016.02-.016.016.01-.01.031-.02.016Zm-.557.067c.016-.01.032.01.016.021-.01-.005-.01-.01-.016-.02Zm.662-.083c0-.005.005-.015.015-.02l.01.01c-.025.015-.03.02-.02.041.01.01.026.006.042-.01-.01.016-.016.036-.026.052-.048-.036-.095-.078-.1-.135.042-.02.042.073.079.062Zm-.105-.067c-.016 0-.016-.021.005-.031.01.01.005.02-.005.03Zm-.52.005c-.021.01-.032-.02-.042-.031.02-.005.037.015.042.031Zm-.116-.02c-.015.015-.026.004-.042-.006.006-.01.006-.02.016-.031.021 0 .026.026.026.036Zm.121-.12-.016.01c-.042-.005.01-.052.016-.01Zm.284-.146c-.027.01-.048-.02-.048-.041l.016-.01c.016 0 .016.03.032.051Zm.509-.877c-.006-.01-.016-.026 0-.036.015.01.02.026 0 .036Zm-7.176-4.61c.027.01.021.067.01.093h-.02c-.016-.026.005-.062.01-.093Zm.405-.037c.026.01.01.057.01.078-.016-.01-.016-.052-.01-.078Zm.073.125c-.021-.005-.016-.078-.01-.093.026.01.026.072.01.093Zm-.898-4.538c-.015-.01 0-.041 0-.057.032 0 .016.052 0 .057Zm-.084-.114v.016c-.005 0-.005.005-.005.01h-.01c0-.005-.006-.005-.006-.01V1.43c.006 0 .006-.005.006-.01h.01c-.005.005 0 .01.005.01Zm-.472-.073c-.037-.02-.005-.119.005-.15.021.026.01.12-.005.15Zm.005-.192c-.005-.03 0-.057.021-.057.005.037 0 .057-.02.057Zm.378-.072c.005-.026.016-.047.042-.047.032.026-.016.083-.042.047ZM9.217.77c-.015-.026.01-.057.037-.057.005.036-.01.057-.037.057Z" fill="#333"/></svg>