<svg fill="none" xmlns="http://www.w3.org/2000/svg"><path d="M.605 11.585c-.11.021-.2-.067-.288-.067.005.073.115.067.147.12-.063.005-.084.02-.137 0 .01.104.152.098.178.187-.01.02-.041-.005-.047.02.047.032.11.047.168.021a.062.062 0 0 1 .047.047c.136.037.246.094.393.125.13.031.303.063.44.089a.58.58 0 0 0 .094.01c.016 0 .026 0 .042.005a.11.11 0 0 1 .042.058c-.042-.016-.095-.079-.131-.058.01.032.057.052.052.089-.026.031-.057 0-.089-.016-.02.021.01.021.005.042-.01.005-.026-.016-.036 0a.51.51 0 0 0 .094.088c0 .01-.005.016-.01.031.073.12.23.214.335.328-.047.021.005.052-.037.073.016.042.058.016.084.037.01.01-.01.03 0 .046.125.094.235.209.366.297.31.213.618.432.938.656l.22.156c.104.073.214.135.32.213.172.125.34.25.497.349.565.364 1.078.77 1.602 1.16-.005.073.09.052.136.1.016.02.016.041.032.051.015.01.036.006.057.016.042.02.074.063.11.073.016.01 0 .036.016.047.02-.01.058.01.078.02.048.032.084.084.142.11-.01.078.084.078.12.099.09.052.178.15.257.203.194.12.35.286.54.406.01.052.078.067.13.104.026.02.047.052.074.067.403.27.754.63 1.141.849.073.093.178.192.293.265.142.088.262.224.414.276-.005.057.047.047.079.068.026.02.031.067.073.062.026.104.173.156.24.229.017.01.027-.005.043 0 .02.078.11.104.152.146.094-.016.125.093.21.12-.011.025.004.036.025.046-.01.01-.015.02-.015.026.015.01.036.005.052.016-.021.052.063.073.089.052-.005.036.042.052.068.052.016.01-.021.036-.005.047.015-.016.031-.026.047-.021.02.005 0 .02.016.026.042.005.078.068.115.088 0 .032.01.084.052.1.01.01.021-.032.032-.022.01.01.015.01.026.01.005.022-.037.027-.021.043.02.015.042-.032.063-.016.01.015-.01.041 0 .057.063-.031.083.052.136.073.037.016.068 0 .1.02 0 .027-.022.011-.027.037.037.016.047.042.073.068.021-.016-.01-.037.021-.042a.332.332 0 0 0 .142.104c.026-.046-.032-.041-.042-.057.02-.042.042.005.057.01.137.094.226.198.357.292.005.01-.01.026.01.031.01-.016.026-.005.037-.026-.047-.047-.11-.125-.168-.166-.031-.021-.094-.021-.057-.079.073 0 .11.12.178.125.015-.02-.016-.036.01-.046.047-.01.031.062.073.052.006-.016-.031-.021-.02-.042.104.005.11.14.204.146-.021-.073-.157-.115-.168-.188.026.01.052-.005.073.005.1.115.205.209.33.308-.073-.094-.199-.177-.22-.297-.01.01-.02.016-.031.016.01-.037-.016-.068-.026-.105-.026 0-.058.016-.084 0-.005-.02.026-.036.026-.052-.052.01-.084-.041-.078-.088-.021-.01-.042-.01-.058-.026-.016.02-.016.031-.037.026-.052-.031-.057-.073-.104-.088-.01-.01.01-.026.005-.037-.026-.01-.053.005-.079-.031.016-.026.01-.047.021-.073-.057-.005-.089-.047-.125-.068 0-.062-.042-.073-.069-.12.037-.005.069.027.105 0 .021.011-.015.032-.005.047.031.032.063 0 .089.042 0 .016-.02.016-.02.031.057.037.083.089.14.104 0-.01-.01-.015.006-.03.015.036.031.025.063.04.015.016.015.037.026.053.052-.005.047.052.068.067.02.021.078.021.094.063-.01.016-.016.01-.026.02.031.022.031.053.063.074.026-.006-.01-.026.005-.042.026-.02.063-.047.079-.01-.011.01-.021 0-.027.015.021.031-.02.047-.01.073.016.016.037-.026.052-.005.063.031.079.088.142.114 0 .032.068.1.1.078a.32.32 0 0 0-.106-.099c.006-.02.01-.062-.026-.067.016.01.016.036 0 .041-.037-.036-.005-.062-.026-.104.031-.026.042.021.058.037.026.031.068.062.089.088.026.032.063.047.094.078.037.037.052.1.105.104.005-.041-.063-.046-.058-.083.005-.015.037-.047.052-.031.006.016.01.031-.01.052.079.016.11.135.188.13.006.01-.015.026.006.037.015.005.01-.032.026-.016.01.016-.031.042-.005.052.031-.026.068-.005.1.016-.027-.047-.059-.11-.106-.136.021-.036-.052-.041-.026-.083.11.104.225.224.33.338 0-.093-.157-.15-.11-.25.079.047.142.13.2.188.015 0 .01-.031.025-.026.037-.005.032.031.063.052.01 0-.01-.037.016-.037.031.037.052.073.078.105.027-.042-.057-.063-.031-.11.016-.005.026.026.042.016 0-.016-.01-.026.01-.042.074.052.074.12.147.188.026-.047.058-.037.089-.084.016.021.047.058.073.094.027-.01.037-.005.058-.026.005.01.005.02.016.031.01-.01.01-.026.026-.02.026.01.01.041.042.041.031-.031-.026-.047.005-.078.02.005.031.036.058.031 0 .016 0 .057.031.042-.005-.026-.037-.047-.01-.083.031-.01.052.01.073.036.01-.005.02-.031.026-.026.016.01.01.02.026.031.026-.026.053 0 .079-.052.005-.036-.037-.062-.021-.099.068.037.052.136.094.177.047-.057-.01-.099.01-.156.037.02.053.02.063.063.069-.084-.005-.141.037-.22.021-.01.016.027.037.006 0-.042-.021-.083-.068-.088-.01-.016-.006-.037.01-.058-.042-.088-.057-.177-.105-.265a2.659 2.659 0 0 0-.157-.26.18.18 0 0 0-.042-.047c-.041-.047-.041-.063-.063-.104-.057-.099-.183-.161-.235-.27-.115-.042-.194-.209-.31-.303-.13-.104-.245-.234-.381-.353-.205-.177-.42-.386-.603-.542-.115-.098-.23-.187-.335-.286-.015-.01-.026.005-.042-.005a.215.215 0 0 0-.11-.094c-.031-.073-.13-.114-.199-.172-.062-.052-.11-.135-.188-.14-.005-.047-.047-.052-.079-.078-.1-.083-.204-.187-.309-.265-.073-.058-.167-.11-.23-.177-.016-.016-.021-.032-.037-.042-.02-.01-.047-.005-.063-.016-.031-.015-.031-.041-.062-.073-.027-.03-.074-.046-.095-.078-.031.021-.104-.02-.094-.062-.016-.01-.026.005-.042-.005-.078-.12-.267-.25-.366-.313-.021.01 0 .037-.016.032-.037-.026-.063-.089-.126-.115a.377.377 0 0 0-.11-.13c-.136-.088-.267-.208-.382-.296-.01 0-.026.005-.037-.006-.031-.036-.063-.03-.104-.067 0-.063-.11-.12-.168-.125 0-.016 0-.032-.016-.042-.084-.01-.136-.083-.204-.146-.02-.02-.052-.026-.073-.036-.042-.026-.063-.057-.095-.083-.015-.01-.041-.016-.057-.026-.047-.037-.073-.1-.147-.104-.02-.058-.084-.068-.13-.1-.058-.04-.105-.103-.163-.14-.005-.005-.021 0-.026-.005-.021-.016-.026-.047-.047-.062-.042-.037-.1-.047-.142-.068-.026-.047-.078-.063-.125-.094.01-.01.01-.02.015-.026-.063-.005-.104-.088-.167-.094-.01-.01-.01-.026-.016-.041-.042 0-.047-.031-.084-.057-.015-.005-.026 0-.042-.005-.141-.11-.235-.209-.403-.308-.01-.015-.01-.036-.016-.052-.11-.067-.256-.114-.33-.223-.01 0-.026.005-.036-.01-.01-.011.01-.027-.005-.037-.016-.016-.027.01-.042-.005-.016-.047-.084-.063-.126-.094-.047-.037-.084-.073-.13-.104-.011-.01-.006-.026-.022-.037-.068 0-.078-.093-.152-.078.016-.046-.036-.057-.068-.057-.005-.01.01-.026-.01-.031-.053.005-.068-.073-.12-.057-.011-.01.015-.026-.006-.032-.094-.041-.162-.114-.262-.187-.089-.068-.214-.088-.256-.166-.01-.006-.021.005-.037 0 0-.016-.016-.026-.016-.042-.063-.026-.13-.12-.21-.13a1.63 1.63 0 0 0-.345-.224c-.005-.016-.01-.02-.02-.026h.188c.23 0 .455-.01.675 0 .026 0 .026-.02.053-.02a.52.52 0 0 0 .22 0c.104.036.272 0 .398 0 .125 0 .261.03.356-.011.052.031.104.005.167.005.194 0 .42.01.618.005.147-.005.304-.02.445-.015.032 0 .053.01.079.01.037-.005.063-.026.084-.026.052-.005.078.01.141.016.063.005.131-.01.189 0 .02-.037.141-.052.172-.01.027 0 .027-.022.053-.022.21.042.555.021.733.01.01-.02-.037-.025-.01-.036.062-.005.157.032.261.01.074.022.168.037.257.032.246-.016.513-.005.738-.01.016-.006.021-.021.047-.021.074.01.105-.016.189-.01.057.051.246.025.32-.006.015.01.03.02.057.02.11-.046.24-.015.382-.01.047 0 .084-.015.126-.015.078-.005.126.005.188.005.032 0 .063-.016.095-.016.089 0 .183.032.272-.01.079.037.162 0 .257 0 .11-.005.22.02.324.016.016 0 .027-.01.037-.016.042-.005.073.02.11.02.084 0 .162-.02.236-.03.078.02.157 0 .235 0 0 .015 0 .026.01.03.08-.036.21.006.294-.025.02.005.037.015.057.02.053-.025.084 0 .152-.005.021-.005.032-.015.058-.02.272 0 .482.026.77 0 .026.01.047.02.063.036.199-.016.419-.062.612-.02.01-.011.027-.016.058-.016.02 0 .01.03.042.026.037.005.026-.021.058-.021.062.031.162 0 .235 0 .084 0 .168.01.257.005.02.005.031.016.057.016.084-.042.184.03.262-.026.021.046.094.026.136.01.016.005.01.026.042.016.063-.032.152.02.2-.026.02 0 .004.03.03.026.152-.021.304-.006.493-.006.173 0 .346-.057.466-.015.02-.005.02-.021.047-.021.016.01.042.016.058.02.104-.015.267.022.372-.015.188.005.44.016.628-.02.037.02.068 0 .11.015.016-.016.058-.016.078-.026.215.031.524.026.78.02.718-.025 1.425-.01 2.132.016.676.021 1.335.1 2.006.073.036-.026.13-.026.167-.026a.064.064 0 0 0 .037-.057c-.084-.052.02-.094.02-.156 0-.057-.088-.089-.13-.135-.026-.026-.021-.068-.042-.1-.031-.046-.094-.04-.12-.077-.006-.052-.058-.063-.058-.115-.031-.01-.084 0-.094-.026.036-.047-.032-.052-.042-.094.052-.088-.042-.218.037-.28-.016-.006-.027-.01-.027-.032.01-.01.032-.015.037-.031-.016-.005-.031-.01-.031-.031.026-.016.068-.021.062-.057.006-.032-.042-.021-.042-.047.006-.1-.052-.14-.11-.203-.01-.032.037-.037.016-.058-.026-.005-.089.01-.11-.015.021-.037.047-.037.021-.083.021-.026.084-.016.095-.047-.037-.031-.152.026-.178-.026.01-.016.052-.005.052-.026-.147.005-.241-.031-.377-.037.052-.005.115 0 .141-.02-.089-.026-.236 0-.304-.047.074-.01.189.01.22-.026-.041-.021-.115-.01-.146-.047.005-.042.078-.031.136-.037.01-.03-.037-.01-.042-.03.01-.011.047 0 .047-.022-.063-.01-.126-.02-.199-.02-.005-.006-.01-.016-.01-.032-.194-.062-.482-.052-.712-.083.041-.042-.053-.042-.011-.078-.058-.02-.089.02-.141.016-.021-.006-.016-.032-.042-.037-.246-.005-.482-.036-.733-.041-.582-.006-1.179-.006-1.78-.006h-.42c-.199 0-.398.01-.597.01-.33 0-.66-.004-.942.006-1.048.036-2.064.016-3.08.02-.063-.056-.162.016-.261 0-.042-.004-.058-.02-.09-.02-.026 0-.057.016-.088.02-.074.011-.152-.004-.205.006-.036 0-.031-.031-.063-.031-.02.02-.078.026-.12.026-.084.005-.183-.016-.278 0-.057-.068-.178-.01-.246-.005-.162.015-.361-.01-.508-.006-.356.021-.707-.015-1.058.016-.062-.031-.162 0-.261 0-.053 0-.105-.01-.152-.005-.76.036-1.53-.016-2.22.057a2.689 2.689 0 0 0-.619-.016c-.261.021-.534-.005-.775.047-.052-.047-.104-.005-.157 0-.052 0-.104-.031-.152 0-.13-.062-.36-.01-.518-.02-.026 0-.026.02-.047.025-.1-.046-.236-.01-.325-.015-.073.057-.178.031-.277.031l.02-.02h.032v-.027h-.005c.136-.135.267-.27.377-.39.455-.515.948-.978 1.424-1.447.074.01.068-.083.12-.12.022-.015.043-.01.058-.026.01-.01.016-.036.026-.052.027-.041.079-.067.095-.098.015-.016.036.005.052-.01-.005-.027.016-.058.037-.074.036-.041.094-.073.13-.13.08.026.095-.073.121-.11.068-.082.183-.155.246-.228.152-.177.351-.307.498-.484.052-.005.078-.073.125-.12.027-.026.058-.041.079-.062.34-.365.754-.666 1.042-1.025.11-.063.225-.151.32-.255.115-.13.267-.23.35-.375.058.01.053-.042.079-.068.026-.026.073-.02.079-.062.11-.01.183-.151.272-.208.015-.01 0-.026.005-.042.079-.01.126-.094.173-.13 0-.094.12-.115.157-.193.026.016.037 0 .052-.02.01.01.016.015.026.02.016-.015.011-.03.027-.047.047.032.084-.052.068-.078.036.01.057-.036.063-.062.015-.01.031.026.047.01-.016-.015-.021-.036-.01-.052.01-.015.02 0 .03-.01.011-.042.085-.068.11-.104.037.005.09 0 .105-.037.01-.01-.031-.026-.015-.036.01-.005.015-.016.015-.02.021-.006.016.04.037.025.021-.02-.02-.047-.005-.062.02-.005.037.015.057.005-.02-.068.069-.078.1-.125.02-.031.01-.068.042-.094.026.006.005.026.031.032.026-.032.053-.037.084-.068-.016-.02-.037.005-.037-.026a.377.377 0 0 0 .131-.125c-.042-.031-.047.026-.063.031-.036-.031.01-.041.021-.052.12-.125.236-.192.351-.312.01 0 .021.016.032-.005-.016-.016-.006-.026-.021-.042-.053.042-.147.089-.194.14-.026.027-.037.09-.09.047.011-.072.142-.088.158-.16-.016-.022-.042.01-.047-.022 0-.047.068-.026.068-.067-.016-.006-.026.03-.042.015.026-.099.162-.083.183-.182-.073.01-.146.135-.22.14.01-.025.006-.051.016-.072.131-.078.246-.172.367-.281-.105.062-.215.177-.335.171.01.01.015.027.01.032-.037-.021-.073.005-.11.01-.005.026.005.057-.016.083-.02.006-.031-.03-.047-.036 0 .057-.057.078-.104.068-.016.02-.021.036-.032.057.021.02.032.02.021.041-.037.047-.084.047-.11.089-.01.005-.026-.016-.037-.01-.015.026-.005.052-.047.072-.026-.02-.047-.02-.068-.03-.015.056-.063.077-.094.114-.063-.01-.084.03-.131.052 0-.037.037-.063.02-.104.017-.021.032.02.048.01.037-.026.01-.062.058-.083.015 0 .01.02.031.026.047-.052.1-.068.126-.125-.01 0-.021.01-.026-.01.036-.01.031-.027.052-.058.02-.01.037-.01.058-.015.005-.052.057-.042.083-.058.021-.015.037-.072.084-.083.016.01.005.016.016.026.026-.026.057-.02.089-.052 0-.026-.026.005-.042-.016-.016-.026-.037-.072.005-.078.005.01-.005.021.01.032.037-.016.048.026.069.02.02-.015-.021-.036 0-.052.042-.057.104-.067.141-.124.026.005.11-.053.1-.089a.446.446 0 0 0-.12.089c-.022-.006-.058-.021-.074.015.01-.015.037-.01.042.005-.042.032-.063-.005-.11.01-.021-.036.031-.036.047-.051.037-.021.073-.058.105-.078.036-.021.057-.058.094-.084.042-.03.11-.036.12-.093-.041-.01-.057.052-.094.041-.016-.005-.037-.041-.02-.057.015-.005.03-.005.046.016.027-.078.152-.089.168-.172.01-.005.026.02.037 0 .005-.016-.027-.016-.01-.031.015-.01.036.036.051.01-.02-.036.01-.067.037-.094-.052.021-.12.042-.157.089-.037-.026-.047.047-.089.01.126-.093.267-.192.403-.275-.089-.01-.178.13-.272.072.063-.067.157-.125.225-.171.005-.016-.026-.016-.02-.032.004-.036.036-.03.062-.057.005-.01-.037.005-.032-.02.042-.027.08-.042.121-.063-.037-.031-.073.047-.115.016-.006-.016.031-.021.026-.037-.016 0-.026.005-.042-.015.063-.063.136-.058.215-.115-.042-.031-.026-.062-.068-.099.026-.015.068-.036.11-.062-.006-.026.005-.042-.016-.058.01-.005.02-.005.031-.01-.01-.01-.026-.01-.015-.026.015-.026.047-.005.047-.031-.026-.037-.053.02-.079-.016.005-.02.042-.026.042-.052.016 0 .058.005.047-.026-.026 0-.057.031-.084 0-.005-.031.016-.047.048-.068-.006-.01-.027-.026-.021-.03.01-.016.026-.006.036-.022-.02-.03.01-.052-.036-.083-.037-.01-.068.026-.105.01.047-.062.147-.03.194-.067-.053-.052-.105-.005-.152-.031.031-.032.031-.047.073-.052-.073-.078-.141-.016-.215-.073-.01-.021.027-.01.01-.037-.041-.005-.088.01-.099.052-.02.006-.036 0-.057-.015-.095.026-.189.031-.288.067a3.312 3.312 0 0 0-.288.115c-.016.01-.042.02-.058.031-.052.037-.073.031-.115.047-.11.042-.194.156-.314.193-.063.109-.246.166-.356.265-.126.114-.283.208-.425.328l-.654.525c-.12.1-.23.203-.346.297-.015.01 0 .026-.015.042a.262.262 0 0 0-.116.099c-.078.02-.141.12-.204.171-.063.058-.157.094-.178.167-.052 0-.058.041-.089.067-.1.089-.225.177-.32.271-.067.068-.14.151-.214.208-.016.01-.037.016-.047.026-.016.021-.016.047-.026.058-.021.03-.048.026-.084.052-.037.026-.058.067-.094.083.015.036-.037.099-.079.088-.01.01 0 .026-.016.042-.136.062-.293.234-.377.323.01.02.037.005.032.02-.032.032-.1.052-.142.11a.393.393 0 0 0-.146.093c-.116.125-.257.235-.362.344-.005.01 0 .026-.01.036-.042.026-.042.063-.084.094-.063-.01-.141.094-.157.146-.016 0-.032 0-.042.01-.02.083-.11.12-.183.182-.021.021-.032.047-.053.068-.031.041-.068.052-.1.083-.015.016-.02.042-.036.052-.042.042-.11.063-.125.13-.063.01-.084.073-.126.12-.053.052-.12.088-.173.14-.005.006-.005.021-.01.026-.016.021-.053.021-.069.037-.041.036-.062.094-.094.135-.052.021-.078.073-.115.11-.01-.01-.016-.016-.026-.016-.016.062-.105.094-.126.156-.016.01-.031.005-.042.01-.01.042-.042.042-.068.073-.01.016-.005.026-.01.042-.131.13-.252.208-.377.364-.021.005-.037.005-.058.005-.084.104-.152.245-.283.302 0 .01 0 .026-.015.037-.01.01-.027-.016-.037.005-.021.01.005.026-.01.042-.053.01-.074.078-.116.114-.042.042-.089.073-.125.12-.01.005-.027.005-.037.015-.01.068-.11.068-.105.146-.042-.02-.063.031-.068.057-.01.005-.02-.01-.031.005-.006.053-.084.063-.079.11-.01.01-.026-.016-.031 0-.058.088-.142.145-.23.24-.085.082-.121.202-.21.233-.005.01.005.026-.005.037-.016 0-.032.01-.042.01-.037.063-.142.115-.163.193a1.566 1.566 0 0 0-.277.312c-.032.005-.032.031-.063.042.005.02-.016.036-.016.057-.12.078-.262.224-.366.343a6.24 6.24 0 0 1-.974.87c-.215.15-.44.27-.65.385a3.175 3.175 0 0 0-.277-.183c-.037.01-.084-.02-.105-.041-.021 0-.037.01-.052.036.02.078-.063.073-.095.125-.031.052.006.11 0 .161 0 .032-.026.068-.031.1-.005.051.031.067.026.109-.016.03-.01.057-.016.083-.062-.005-.12-.005-.178-.01a.383.383 0 0 0 .173.041c0 .005 0 .005-.005.005.016.021.047.032.037.058-.006.005-.01.005-.01.01-.085 0-.163-.005-.231-.01-.021.01.015.026-.006.036-.041.026-.073 0-.125.005-.016.005.047.016.015.037a2.3 2.3 0 0 1-.199-.027c.016.047.131.01.147.058-.01.015-.057 0-.063.015.016.01.037.01.032.037-.136.01-.21-.042-.362-.037.021.052-.031.068-.02.12-.048-.005-.11-.016-.184-.02-.02.025-.042.03-.037.057-.015-.006-.031-.01-.047-.01.006.015.016.025-.005.03-.042.01-.058-.02-.089-.005-.005.047.079.016.073.063-.026.01-.068-.006-.094.015-.016-.01-.063-.041-.078-.01.031.015.094.01.1.052-.027.026-.069.026-.121.02-.006.011.01.037-.006.037-.031.005-.036-.01-.062-.005 0 .036-.058.036-.037.088-.01.1.063.094.089.13Zm11.112 8.223c-.042-.01-.042-.047-.078-.078.036.005.078.047.078.078Zm-.084-.052c-.015.02-.03-.005-.03-.016.01-.02.036 0 .03.016Zm-.193-.037c.01-.02.042 0 .031.016-.005.02-.031-.01-.031-.015Zm-.021-.213.057.047c-.005.02-.02.02-.02.042.01.01.02-.021.036-.021.037.026.052.057.094.083a.11.11 0 0 1-.02.052c-.006-.005-.011 0-.016-.005.01-.031-.027-.115-.074-.083-.01-.037-.062-.021-.062-.058.005-.01.015-.01.026-.005-.01-.02-.047-.031-.021-.052Zm-.021.151c.02.016.037.026.037.047-.021.015-.053-.026-.037-.047Zm-.079-.234c.021.01.021.015.042.031-.01.031-.047.031-.073.005l.031-.036Zm2.179.489c.016.01.026.026.01.042-.02-.01-.026-.026-.01-.042Zm-.005.453c-.021-.016-.021-.031-.006-.052.021 0 .021.031.005.052Zm-.016-.469c-.026.006-.063-.046-.068-.073.031-.02.057.047.068.073Zm-.2.386c-.036.01-.03-.052.006-.052.01.015.01.03-.005.052Zm.006-.432c.021-.021.037.005.037.02-.01.006-.042-.005-.037-.02Zm-.068-.282c.042.047.12.089.105.151-.042-.046-.068-.078-.116-.124 0-.01.006-.016.011-.026Zm-.068-.062c.01.01.037.02.037.037-.01.01-.027.01-.037.01-.005-.01-.016-.026 0-.047Zm-.073-.068c-.016-.005-.01-.015-.021-.026.01-.01.042.006.02.026Zm-.016.693.01-.01c.006.004.006 0 .01 0l.006.004c-.005.006 0 .006 0 .01l-.01.011c-.006-.005-.006 0-.01 0l-.006-.005c.005-.005 0-.005 0-.01Zm-.105.03c.016-.01.021.016.026.022-.015.026-.036-.01-.026-.021Zm-.455-1.3c.026.005.062.041.031.073-.037-.006-.037-.052-.031-.073Zm.02 1.067c.011 0 .016 0 .027.01-.005.02-.042.005-.027-.01Zm-.01.088c-.016.026-.031.02-.037.005.016-.015.027-.015.037-.005Zm-.073-1.056c-.016.005-.01-.01-.016-.021.01-.01.037.005.016.02Zm-.42.79c-.015.016-.046-.015-.025-.03.01-.006.026.015.026.03Zm-.067-.067c.02.01.02.02.031.031-.01.016-.052-.015-.031-.031Zm-.116-.01c-.015-.006-.036-.01-.01-.032.01.01.026.021.01.032Zm-.005-.084c-.031-.026-.057-.052-.078-.072.036-.01.078.036.078.072Zm-.12-.114c-.01-.01-.026-.016-.026-.031.026-.026.047.005.026.03Zm-.273-.255c.011.005.037.01.016.031-.01 0-.026-.016-.015-.031Zm-.062-.063c-.016.01-.027-.005-.032-.015.01-.016.032.005.032.015Zm-.283-.125c.02.01.016.021.016.037-.016.016-.042-.005-.042-.02l.026-.017Zm.042.599c-.01.01-.021 0-.026.01-.01-.026-.042-.052-.058-.078.037-.005.063.047.084.068Zm-.142-.645-.015-.01c.01-.021.031-.006.015.01Zm-.11-1.395c.016.01.021.02.006.036-.006-.01-.016-.02-.006-.036Zm.01 1.265c0-.006.006-.016.011-.021l.01.01c-.02.016-.025.026-.015.042.016.01.026.005.042-.016-.01.021-.01.037-.02.057-.053-.026-.106-.062-.116-.114.042-.037.052.057.089.042Zm-.083.01c.021.01-.005.036-.016.02.01-.015 0-.015.016-.02Zm-.026-.094c.01.01.01.021 0 .032-.016.005-.021-.01 0-.032Zm-.152.417c.005.01.026.01.021.026-.01.015-.042-.016-.021-.026Zm-.157-.666c.02 0 .026.03.042.046-.021.016-.047-.01-.053-.03l.01-.017Zm-.194.54c-.01-.005-.015-.01-.015-.02.01-.01.036.005.015.02Zm-.015-.306-.011.015c-.047 0-.005-.057.01-.015Zm.01.14c-.021.016-.031-.015-.042-.026.016-.005.037.01.042.026Zm-.052.037c-.021.015-.053-.01-.053-.032.016-.015.047.016.053.032Zm-.09-.068c.021-.005.027.016.027.031-.01.016-.026.01-.042 0 .01-.01.005-.02.016-.031Zm-3.403-7.291c-.027.005-.047 0-.042-.026.02.005.042.005.042.026Zm-.388-1.29v-.021c.053-.026.053.046 0 .02Zm.032-.193c.005.01.015.015.015.031-.02.016-.047 0-.063-.005 0-.02.021-.026.048-.026Zm6.75-7.02c-.016-.016.01-.037.02-.032.022.021-.005.032-.02.032Zm.089-.11c-.016.042-.053.037-.09.063.006-.032.058-.068.09-.063Zm-.205.297c.016-.016.032-.031.053-.031.005.026-.037.046-.053.03Zm.063-.037c-.015-.015.01-.041.021-.03.021.015-.01.036-.02.03Zm-.162-.052c.021.006.016.026.037.026.01-.01-.016-.026-.016-.036.031-.031.063-.047.1-.078a.124.124 0 0 1 .047.031c-.006.005-.006.01-.006.016-.031-.016-.115.005-.094.062-.037.01-.031.057-.068.057-.01-.01-.01-.015 0-.026-.016 0-.031.032-.052.006l.052-.058Zm.026.35c.005.01 0 .02.005.03-.031.006-.057.037-.089.047 0-.036.058-.057.084-.078Zm-.141-.25c.026.015.026.051-.005.072l-.032-.036c.016-.021.016-.026.037-.037Zm.413-.61c.011.016-.02.042-.036.021 0-.015.02-.026.037-.02Zm.351-.452c.021.02.016.03-.005.036-.005-.016-.005-.026.005-.036Zm.53-.927c-.016.016-.037.016-.053-.005 0-.02.037-.016.052.005Zm-.121.198c.005.036-.058.02-.053-.01.016-.01.037-.01.053.01Zm-.152.281c.02.026-.016.037-.026.026-.01-.016.016-.02.026-.026Zm-.047-.099.005-.005c.005.005.005.005.01 0l.011.01c-.005 0 0 .006 0 .01l-.005.006c-.005-.005-.005-.005-.01 0l-.011-.01c.005-.006 0-.01 0-.01Zm-.094-.458c-.016.016-.032.021-.047.005.02-.015.036-.02.047-.005Zm-.063.021c0 .026-.058.057-.084.057-.016-.036.058-.052.084-.057Zm-.053.156c.006.01-.015.037-.026.031-.02-.02.01-.03.026-.03Zm-.068.78c.021.011-.005.042-.015.022 0-.01.005-.016.015-.021Zm-.084-.806c-.052.037-.088.057-.146.099-.005 0-.016-.005-.021-.016.052-.036.11-.109.167-.083Zm-.199.11c.011.015.006.025.006.036-.016.01-.032.016-.047-.005.01-.01.026-.032.041-.032Zm-.041 1.222c.01.016-.027.052-.042.026.015-.015.031-.015.042-.026Zm-.09-1.129c-.01.016-.02.01-.026.016-.005-.01.01-.037.027-.016Zm.022 1.275c-.006.016-.021.031-.037.005.016-.01.026-.026.037-.005Zm-.09-.01a2.442 2.442 0 0 1-.083.067c-.006-.036.052-.072.083-.067Zm-.13.099c-.01.01-.021.026-.037.026-.021-.032.016-.047.037-.026Zm-.273.223c0 .016-.02.026-.031.01.005-.01.01-.03.031-.01Zm-.125.1c-.01-.016.01-.032.02-.032.006.016-.01.026-.02.031Zm-.016-1.11c-.01-.015.01-.03.026-.01-.005.016-.016.01-.026.01Zm.005-.103c-.01.03-.052.026-.078.015.015-.026.057-.057.078-.015Zm-.042 1.91c.021.015-.02.036-.026.015.005 0 .016-.026.026-.015Zm-.063-.474c.016.02-.01.042-.031.036-.005-.01-.005-.015-.01-.026.01-.015.026-.015.041-.01Zm-.104.104-.016.016c-.021-.016 0-.037.016-.016Zm-.226.807c-.01-.016.027-.047.042-.047.01.02-.02.047-.042.047Zm.09-.625c-.011-.01-.016-.005-.016-.02.01-.016.031.01.015.02Zm.068.552c-.01-.016.01-.031.02-.016-.005.01-.01.01-.02.016Zm-.084-.656c-.005 0-.016-.005-.021-.015l.01-.01c.016.025.021.03.042.02.01-.01.006-.026-.01-.042.016.01.036.016.052.026-.037.047-.078.094-.136.1-.021-.042.073-.042.063-.079Zm-.068.104c0 .016-.021.016-.032-.005.01-.01.021-.005.032.005Zm.005.515c.01.021-.021.032-.031.042-.006-.02.015-.036.031-.042Zm-.021.115c.016.016.005.026-.005.042-.01-.006-.021-.006-.032-.016 0-.02.027-.026.037-.026Zm-.12-.12.01.016c-.005.042-.052-.01-.01-.016Zm-.147-.28c.01.025-.021.046-.042.046l-.01-.016c0-.015.031-.015.052-.03Zm-.885-.506c-.01.006-.026.016-.037 0 .01-.015.026-.02.037 0Zm-4.65 7.115c.01-.027.068-.021.094-.011v.02c-.026.016-.063-.004-.094-.01Zm-.037-.401c.01-.026.058-.01.079-.01-.01.015-.053.015-.079.01Zm.126-.073c-.005.02-.079.015-.095.01.01-.026.074-.026.095-.01Zm-4.577.89c-.01.015-.042 0-.058 0 0-.031.053-.016.058 0Zm-.115.083h.015c0 .005.006.005.01.005v.01c-.004 0-.004.006-.01.006h-.015c0-.005-.006-.005-.01-.005v-.01c.004.005.01 0 .01-.006Zm-.074.468c-.02.037-.12.006-.152-.005.027-.02.12-.01.152.005Zm-.193-.005c-.032.005-.058 0-.058-.02.037-.006.058 0 .058.02Zm-.074-.374c-.026-.006-.047-.016-.047-.042.026-.031.084.015.047.042Zm-.324.078c-.027.015-.058-.01-.058-.037.037-.005.058.01.058.037Z" fill="#333"/></svg>