<svg xmlns="http://www.w3.org/2000/svg" viewBox="0 0 496.49 204.55"><defs><style>.cls-1,.cls-3{fill:#333}.cls-2{fill:#ff7b7b}.cls-3{stroke:#333;stroke-miterlimit:10}</style></defs><path class="cls-1" d="M219.47 97.17c3.67-.46 4.13-.92 7.79-1.15a9.44 9.44 0 0 0 6.64-3c1.38-1.61 2.6-3.44 4-5a9.49 9.49 0 0 1 1.38-1.61 2.42 2.42 0 0 1 2.9-.61 2 2 0 0 1 1 2.52 4.31 4.31 0 0 1-.69 1.76c-1.22 2.14-2.52 4.43-4 6.49a18.66 18.66 0 0 1-3.66 3.66 10.4 10.4 0 0 1-5.73 2.22c-4.81.3-6.33.53-11.14.91a2 2 0 0 0-2.29 1.45 8.12 8.12 0 0 1-1.61 3 4.25 4.25 0 0 1-2.06 1.6 3.3 3.3 0 0 1-4.58-2.29 6.46 6.46 0 0 1 .92-4.35 9.08 9.08 0 0 0 .84-2.82 211.48 211.48 0 0 0 .45-25.95c-.38-6.57-.38-13.21-.46-19.7a12.13 12.13 0 0 1 .3-2.9 7.55 7.55 0 0 1 .69-1.91 4.23 4.23 0 0 1 6.87-.68 7.8 7.8 0 0 1 1.53 3 28.11 28.11 0 0 1 1 6 157.83 157.83 0 0 1-.47 28.19c-.3 3.67-.76 7.33-1.22 11.23.54.02.99-.06 1.6-.06Z"/><path class="cls-1" d="M252.38 94.34a10 10 0 0 0 6.72-1.83 18 18 0 0 0 5.26-5.72c.92-1.76 1.76-3.44 2.68-5.27.53-1.07 1-2.06 1.6-3.13a2.68 2.68 0 0 1 3.28-1.15 2.92 2.92 0 0 1 1.53 3.21 9.36 9.36 0 0 0-.23.92c-2.22 6.1-5.22 11.45-10.46 15.57a16.7 16.7 0 0 1-13.82 3.66 12.73 12.73 0 0 1-10.3-8.32C234.82 82.51 240 72.21 247 68a13 13 0 0 1 9.35-2c7.79 1.37 11 9.69 6.41 15.65a26.49 26.49 0 0 1-5.95 5.72 10.26 10.26 0 0 1-4.89 2 6.81 6.81 0 0 1-4.58-.69c-.15 3.91 2.29 5.44 5.04 5.66Zm-2.67-10.53a11.11 11.11 0 0 0 2.67-.92 20 20 0 0 0 5-4.5 8.66 8.66 0 0 0 .76-1.22c.92-2.29-.53-4.51-3-4.28a7.4 7.4 0 0 0-2.75.92c-3.74 2.52-5.34 6.33-5.72 10.76 1.2-.3 2.12-.46 3.04-.76Z"/><path class="cls-1" d="M287.8 89.38a16.38 16.38 0 0 1 .84 15.58 9.33 9.33 0 0 1-7.71 5.72 8.89 8.89 0 0 1-9-4.73 10.15 10.15 0 0 1-.68-8.78 22.73 22.73 0 0 1 3.2-6.19c.31-.45.54-.91.92-1.37l-1.07-1.07c-1.45-1.6-3.05-3.2-4.43-4.88a11.79 11.79 0 0 1-2.22-6.66 9.6 9.6 0 0 1 6.11-8.63 9 9 0 0 1 9.92 2.29 11.78 11.78 0 0 1 2.06 3.13 3.58 3.58 0 0 1 .15 2.52 2 2 0 0 1-3.36 1c-.45-.46-.76-.92-1.14-1.37a4.9 4.9 0 0 0-3.51-2.14 3.75 3.75 0 0 0-3.21 1 1.9 1.9 0 0 0-.46 2.22 8.17 8.17 0 0 0 1.68 2.59c2.22 1.6 4.35 3 6.64 4.35a1.55 1.55 0 0 0 1.3 0 34 34 0 0 0 8.78-5.34 15.9 15.9 0 0 1 1.83-1.3 2.64 2.64 0 0 1 3.13.92 2.68 2.68 0 0 1-.45 3.43 8.68 8.68 0 0 1-1.3.92c-2.83 1.75-5.57 3.59-8.48 5.26 0 .16-.07.23-.22.39.22.3.45.76.68 1.14Zm-11.91 9.93a4.53 4.53 0 0 0 .84 3.43 2.58 2.58 0 0 0 2.52 1.3 2.37 2.37 0 0 0 1.83-1.83 16.27 16.27 0 0 0 .31-4.28 7.84 7.84 0 0 0-2.52-5.27 20 20 0 0 0-2.98 6.65ZM322.84 83.43c1.22-2 2.6-4.05 4-6a15 15 0 0 1 4.74-4.27c4.12-2.52 8.47-1.45 11.07 2.67a27.88 27.88 0 0 1 1.37 2.6c.46-.08 1.07-.23 1.53-.31 1.68-.38 3.43-.69 5.11-.92a7.78 7.78 0 0 1 3 .08 2.21 2.21 0 0 1 1.83 2.21 2.09 2.09 0 0 1-1.68 2.14 18.44 18.44 0 0 1-2.75.69c-1.75.46-3.59.84-5.26 1.14-.23.16-.62.23-.92.39a6.92 6.92 0 0 0-.15 1.83 29.92 29.92 0 0 1-3.06 12 37.19 37.19 0 0 1-3.2 4.58 7.64 7.64 0 0 1-3.67 2.45 6.49 6.49 0 0 1-8.39-4 11.16 11.16 0 0 1-.69-5.73 15.36 15.36 0 0 1 5.65-10.84c1.68-1.37 3.51-2.67 5.49-4v-.23c-.84-2.06-1.52-2.29-3.2-1a14.38 14.38 0 0 0-2.52 2.36 66 66 0 0 0-9.54 17.87 26.45 26.45 0 0 0-.69 7.78c0 3.59.23 7.1.38 10.54v.84a3.5 3.5 0 0 1-6.57 1.83 10.81 10.81 0 0 1-1.14-3.21c-.76-3.66-1.6-7.25-2.14-10.91a123.7 123.7 0 0 1-1.83-26.42c.23-3.66.31-7.48 1.45-11a15.15 15.15 0 0 1 1.53-3.66c2.13-3.36 6.18-3 7.78.53a17.16 17.16 0 0 1 1.15 4.35c.23 3.67.23 7.48.3 11.22v3.44a.27.27 0 0 1 .23.15 3.14 3.14 0 0 1 .79-1.19Zm8.48 12.44a3.09 3.09 0 0 0 .76 2.75c1.3-.31 1.83-1.37 2.44-2.37A28.8 28.8 0 0 0 337.27 86a2.37 2.37 0 0 0-.15-.76c-3.74 2.76-5.8 6.2-5.8 10.63ZM366 68.08a49.49 49.49 0 0 1-6 1.15 8.23 8.23 0 0 1-3.59-.46c-2.82-1.07-3.28-4.27-1-6.34a25.21 25.21 0 0 1 2.32-1.43 30.34 30.34 0 0 1 8.48-3 15.73 15.73 0 0 1 2-.46c.08-1.53.31-2.75.46-4.12.23-1.61.46-3.13.69-4.58a8.1 8.1 0 0 1 .53-2 3.59 3.59 0 0 1 3.36-2.14 3.53 3.53 0 0 1 3.19 2.3 8 8 0 0 1 .53 2.06c.23 1.68.38 3.52.46 5.27a9 9 0 0 1 .23 1.45 15.49 15.49 0 0 0 2.21-.23 33.44 33.44 0 0 1 4-.07 5.4 5.4 0 0 1 4.58 2.36 3.7 3.7 0 0 1 .35 4.16 3.31 3.31 0 0 1-3.2 1.75 39.16 39.16 0 0 0-7.79 1.38c0 .45-.15.91-.15 1.37.15 8.25.15 16.49.23 24.73a120.66 120.66 0 0 0 1.37 17.41 4.3 4.3 0 0 1 .15 1.37 2.38 2.38 0 0 1-1.6 2.14 2.22 2.22 0 0 1-2.52-.69 6.68 6.68 0 0 1-1.14-2.06c-2.67-8.24-5-16.49-5.88-25.19-.46-4.81-.54-9.69-.54-14.5v-2a8.13 8.13 0 0 1-1.73.37Z"/><path class="cls-1" d="M410.94 80.45c-.15.23-2.9 6-6.41 11.68a11.84 11.84 0 0 1-1.3 1.91 58 58 0 0 1-4 5.65 14.41 14.41 0 0 1-4.12 3.66 5.81 5.81 0 0 1-7.79-1.3 12.43 12.43 0 0 1-2.9-5.72 43.28 43.28 0 0 1-.53-17.71 8.71 8.71 0 0 1 .91-2.9 4.45 4.45 0 0 1 4.36-2.83 4.35 4.35 0 0 1 3.66 3.67 13 13 0 0 1 .46 3.43c-.23 3.21-.61 6.41-.84 9.62-.08 1.83-.31 3.67-.46 5.34a5.31 5.31 0 0 0 .15 1.61c.08.61.54 1.83 2.06.91h.08a.56.56 0 0 0 .23-.22c.15 0 .15-.08.23-.08l.38-.38.54-.54a41.13 41.13 0 0 0 5-6.56 110.82 110.82 0 0 0 6-11.22 2.43 2.43 0 0 1 3.13-1.15 2.38 2.38 0 0 1 1.16 3.13Zm-24.65-17.56a4.18 4.18 0 0 1 3.35-4.43 3.79 3.79 0 0 1 4.43 3.06 9.35 9.35 0 0 0 .46 1.6 2.89 2.89 0 0 1-3 4.12c-2.95 0-5.02-1.68-5.24-4.35Z"/><path class="cls-1" d="M404.76 68.08a49.49 49.49 0 0 1-6 1.15 8.25 8.25 0 0 1-3.59-.46c-2.82-1.07-3.28-4.27-1-6.34a25.38 25.38 0 0 1 2.35-1.43 30.16 30.16 0 0 1 8.48-3 16.14 16.14 0 0 1 2-.46c.08-1.53.31-2.75.46-4.12.23-1.61.46-3.13.69-4.58a8.57 8.57 0 0 1 .53-2 3.6 3.6 0 0 1 3.32-2.12 3.53 3.53 0 0 1 3.22 2.28 8 8 0 0 1 .53 2.06c.23 1.68.38 3.52.46 5.27a9 9 0 0 1 .23 1.45 15.49 15.49 0 0 0 2.21-.23 33.44 33.44 0 0 1 4-.07 5.39 5.39 0 0 1 4.58 2.36 3.72 3.72 0 0 1 .39 4.13 3.33 3.33 0 0 1-3.21 1.75 39.16 39.16 0 0 0-7.79 1.38c0 .45-.15.91-.15 1.37.15 8.25.15 16.49.23 24.73a120.66 120.66 0 0 0 1.3 17.42 4 4 0 0 1 .16 1.37 2.39 2.39 0 0 1-1.61 2.14 2.22 2.22 0 0 1-2.52-.69 6.89 6.89 0 0 1-1.14-2.06c-2.67-8.24-5-16.49-5.88-25.19-.46-4.81-.53-9.69-.53-14.5v-2a8.34 8.34 0 0 1-1.72.39Z"/><path class="cls-1" d="M442.24 89.38a16.38 16.38 0 0 1 .84 15.58 9.33 9.33 0 0 1-7.71 5.72 8.87 8.87 0 0 1-9-4.73 10.12 10.12 0 0 1-.69-8.78 22.73 22.73 0 0 1 3.2-6.19c.31-.45.54-.91.92-1.37l-1.07-1.07c-1.45-1.6-3.05-3.2-4.43-4.88a11.79 11.79 0 0 1-2.21-6.66 9.6 9.6 0 0 1 6.11-8.63 9 9 0 0 1 9.92 2.29 11.78 11.78 0 0 1 2.06 3.13 3.58 3.58 0 0 1 .15 2.52 2 2 0 0 1-3.35 1c-.46-.46-.77-.92-1.15-1.37a4.9 4.9 0 0 0-3.51-2.14 3.75 3.75 0 0 0-3.21 1 1.88 1.88 0 0 0-.45 2.22 8 8 0 0 0 1.67 2.59c2.22 1.6 4.36 3 6.65 4.35a1.53 1.53 0 0 0 1.29 0 34 34 0 0 0 8.78-5.34 15.19 15.19 0 0 1 1.84-1.3 2.65 2.65 0 0 1 3.13.92 2.7 2.7 0 0 1-.46 3.43 8.2 8.2 0 0 1-1.3.92c-2.83 1.75-5.57 3.59-8.47 5.26 0 .16-.08.23-.23.39.23.3.44.76.68 1.14Zm-11.91 9.93a4.57 4.57 0 0 0 .84 3.43 2.58 2.58 0 0 0 2.52 1.3 2.38 2.38 0 0 0 1.84-1.83 16.69 16.69 0 0 0 .3-4.28 7.84 7.84 0 0 0-2.52-5.27 20 20 0 0 0-2.98 6.65ZM347.31 56c1.6.22 3.05-1.07 4.65-.39a3.27 3.27 0 0 1 1.83 2.75 6.73 6.73 0 0 1-.53 3.9c-1.14 2.21-2.29 4.27-3.43 6.33a3 3 0 0 1-2.22 1.68c-3.74 2.44-3-6.41-1.68-7.33-2.93-2.64-1.6-6 1.38-6.94Z"/><path class="cls-2" d="M205.65 156.7a51.1 51.1 0 0 1-13 17.41 16.94 16.94 0 0 1-8.55 3.89 13.41 13.41 0 0 1-8-1.37 16.88 16.88 0 0 1-6.41-5.58 21.7 21.7 0 0 1-3-6 43.9 43.9 0 0 1-2.67-18.78 47.69 47.69 0 0 1 2.29-11.38 23.31 23.31 0 0 1 3.59-6.64c5-6.41 14.5-8.55 22.9-2.52a11 11 0 0 1 4.2 6.8 4.81 4.81 0 0 1 .15 1.83 2.38 2.38 0 0 1-3.89 1.68 6.1 6.1 0 0 1-1.3-1.15 9.82 9.82 0 0 1-1.37-1.68 8.48 8.48 0 0 0-13.75-.61 15.51 15.51 0 0 0-2.82 5.73 36.5 36.5 0 0 0-.61 19.85 52.74 52.74 0 0 0 1.53 5.34 13 13 0 0 0 4 6.34 7.75 7.75 0 0 0 6.18 1.83c1.14-.46 2.21-.92 3.21-1.37a16.42 16.42 0 0 0 2.74-2 33.8 33.8 0 0 0 7.26-7.79c1.9-3 2.82-5.49 3-5.49a2.27 2.27 0 0 1 3-1.38 2.54 2.54 0 0 1 1.32 3.04Z"/><path class="cls-2" d="M236.88 157.39c-.23.38-5.65 8.62-12.83 10.07-.15.23-.22.39-.38.69a16.51 16.51 0 0 1-3.66 6.57 21.49 21.49 0 0 1-3.67 3.28 7.46 7.46 0 0 1-8.7.23 10.85 10.85 0 0 1-5.57-9.7 34.18 34.18 0 0 1 .46-4.81 2.65 2.65 0 0 0-.46-2.06c-5.5-7.33-.92-15.27 5-17.56a13.38 13.38 0 0 1 7.33-.76 4.1 4.1 0 0 0 1 .08 4.11 4.11 0 0 1 3.66 1.75 1.27 1.27 0 0 0 .46.46c4.28 3.21 5.65 7.79 5.95 12.83v2.74a14.26 14.26 0 0 0 1.84-.91 17.93 17.93 0 0 0 3.89-3.13c.69-.92 1.37-1.68 1.76-2.29a2.32 2.32 0 1 1 3.89 2.52ZM218 167.69l-7-.69a4.26 4.26 0 0 0 1.22 4.5 1.9 1.9 0 0 0 1.38.46c1.6-.22 4.04-2.66 4.4-4.27Zm-6.26-6.64c2.29 1.07 6.87 1.6 8.78 1.07 1.37-4.5-.31-10.53-3.29-11.91a23.67 23.67 0 0 0-5.54 10.84Z"/><path class="cls-2" d="M275.89 157.54c-.15.31-.23.69-.38 1q-7.56 17.17-15.19 34.28c-1.15 2.52-2.45 4.88-3.67 7.33a26.71 26.71 0 0 1-1.6 2.29c-2.75 3.2-6.41 2.75-8.25-1.15a14.7 14.7 0 0 1-1.37-5.72 88 88 0 0 1 1.15-22.37c.07-.69.22-1.37.3-2.14 0 0-.08-.15-.23-.38-.23.23-.53.46-.91.84-1 .76-2.07 1.83-3.06 2.6a22.64 22.64 0 0 1-2.44 1.6 7.19 7.19 0 0 1-9.62-2.75 12.25 12.25 0 0 1-1.83-6.64c-.54-10.61 8.47-20.15 19.16-20.23a10.65 10.65 0 0 1 7.18 2.29 3.81 3.81 0 0 0 1.52.46 4.27 4.27 0 0 1 4.13 3.66 11.41 11.41 0 0 1-.23 5c-2 7.86-3.82 15.65-5.73 23.44a103.71 103.71 0 0 0-2.29 12.82 7 7 0 0 0-.15 1.76h.38l1.37-2.9c1.61-4.35 3.29-8.55 5-12.9a162.43 162.43 0 0 1 9.24-20.31c.69-1.22 1.37-2.29 2.06-3.44.23-.3.61-.76.92-1.14a3.87 3.87 0 0 1 .84-.69 2.2 2.2 0 0 1 2.36-.23 2.54 2.54 0 0 1 1.3 1.38 3.6 3.6 0 0 1 .04 2.24Zm-26.11-2.75a9.91 9.91 0 0 0-3 0 11.68 11.68 0 0 0-9.31 10.08c0 1 .15 2.06.23 3.2.15 0 .23.08.38.08.69-.46 1.45-.76 2.14-1.22a61.39 61.39 0 0 0 9.54-9.39c.23-.38.54-.84.69-1.15.32-.91.25-1.39-.67-1.6Z"/><path class="cls-2" d="M314.21 156.85c-.45 1.38-1.37 3.9-2.51 6.49 0 0-.69 1.6-1.15 2.44A3.06 3.06 0 0 1 310 167c-.84 1.52-1.53 2.9-2.22 4.27a26.31 26.31 0 0 1-3.28 4.43c-2.52 2.67-5.73 2.29-7.94-.54a9.36 9.36 0 0 1-1.91-4.27c-.46-2.52-.84-4.89-1.14-7.41a11.65 11.65 0 0 1-.23-1.75h-.38c-.23.46-.46 1.07-.69 1.53-1.6 3.43-3.05 6.87-4.66 10.15a16.51 16.51 0 0 1-2.67 3.89c-2.6 3.21-6.26 3.36-9.47.69a11.56 11.56 0 0 1-3.35-5.73 26.15 26.15 0 0 1-.92-4.81 76.47 76.47 0 0 1-.31-9.39 24.63 24.63 0 0 1 .77-4.58 13.57 13.57 0 0 1 .91-2.06 4.25 4.25 0 0 1 7.1-.07A7.39 7.39 0 0 1 281 156c-.08 4.28-.23 8.48-.31 12.75a12.64 12.64 0 0 0 .31 4.43c.46-.53.91-.92 1.29-1.37 1-1.68 2.14-3.29 3.06-5.12q4-7.56 7.79-15.11a11.65 11.65 0 0 0 .68-2.29 20.72 20.72 0 0 1 1.53-3.82 3.54 3.54 0 0 1 6.26-.31 9.82 9.82 0 0 1 1.3 3.51 18 18 0 0 1 0 5c-.16 2.13-.69 4.2-.84 6.41-.31 2.75-.46 5.5-.54 8.24 0 .54.08 1 .08 1.84l1.07-1.07a92.65 92.65 0 0 0 7.17-13.74 2.24 2.24 0 0 1 2.9-1.45 2.28 2.28 0 0 1 1.46 2.95Z"/><path class="cls-2" d="M322.92 171a10 10 0 0 0 6.72-1.84 18 18 0 0 0 5.27-5.72c.91-1.76 1.75-3.44 2.67-5.27.53-1.07 1-2.06 1.6-3.13a2.67 2.67 0 0 1 3.28-1.14 2.91 2.91 0 0 1 1.53 3.2 9.36 9.36 0 0 0-.23.92c-2.21 6.11-5.27 11.45-10.46 15.57a16.72 16.72 0 0 1-13.81 3.67 12.76 12.76 0 0 1-10.31-8.33c-3.82-9.77 1.37-20.07 8.32-24.27a13 13 0 0 1 9.39-2.06c7.79 1.37 11 9.69 6.41 15.65a26.49 26.49 0 0 1-5.95 5.72 10.26 10.26 0 0 1-4.89 2 6.82 6.82 0 0 1-4.58-.69c-.15 3.94 2.29 5.47 5.04 5.72Zm-2.67-10.54a11.11 11.11 0 0 0 2.67-.92 20 20 0 0 0 5-4.5 8.12 8.12 0 0 0 .76-1.22c.92-2.29-.53-4.5-3-4.28a7.52 7.52 0 0 0-2.75.92c-3.74 2.52-5.35 6.34-5.73 10.76 1.22-.32 2.13-.47 3.05-.78Z"/><path class="cls-2" d="M372.08 156.93a91.51 91.51 0 0 1-4.65 9.62c-.61 1-1.15 2.06-1.76 3a41.46 41.46 0 0 1-4.65 6.87 15.23 15.23 0 0 1-3.9 3.44 7.4 7.4 0 0 1-8.17.38 12.86 12.86 0 0 1-4.88-4.35 21.8 21.8 0 0 1-3.21-6.57c-3-8.32-3.2-16.94-1.83-25.65a51.61 51.61 0 0 1 3.43-12.59 20.92 20.92 0 0 1 4.36-6.95 14 14 0 0 1 2.82-2.44c4.12-2.52 8.93-.77 10.69 3.81a21.07 21.07 0 0 1 1 7 47.12 47.12 0 0 1-2.14 11.6 82.87 82.87 0 0 1-9.31 19.24 3.18 3.18 0 0 0-.46 1.6 15.05 15.05 0 0 0 2.06 6.95c1.83 2.9 2.52 2.52 4.74.84a20 20 0 0 0 4.65-5.49c2.22-3.59 4.28-7.1 6.34-10.69.08-.23.23-.31.23-.46a6.71 6.71 0 0 0 .46-1 2.39 2.39 0 0 1 3.05-1.3 2.31 2.31 0 0 1 1.13 3.14Zm-23.43-4.58a4.58 4.58 0 0 0 .23.69c.68-1.53 1.22-2.75 1.91-4a50.9 50.9 0 0 0 4.5-12.9 29.06 29.06 0 0 0 .46-5 13.64 13.64 0 0 0-.69-3.44c-.46-1.37-1.3-1.52-2.21-.22a11.27 11.27 0 0 0-1.15 1.9 25.53 25.53 0 0 0-1.91 7.33c-.46 5.18-.79 10.37-1.14 15.64Z"/><path class="cls-2" d="M394.53 157.08c-.15.23-2.9 6-6.41 11.68a11.41 11.41 0 0 1-1.3 1.91 56.78 56.78 0 0 1-4 5.65 14.54 14.54 0 0 1-4.12 3.66 5.82 5.82 0 0 1-7.79-1.29A12.41 12.41 0 0 1 368 173a43.28 43.28 0 0 1-.53-17.71 8.34 8.34 0 0 1 .91-2.9 4.45 4.45 0 0 1 4.35-2.83 4.37 4.37 0 0 1 3.67 3.67 13.48 13.48 0 0 1 .46 3.43c-.23 3.21-.62 6.42-.84 9.62-.08 1.83-.31 3.67-.46 5.35a5.28 5.28 0 0 0 .15 1.6c.08.61.53 1.83 2.06.92h.08a.62.62 0 0 0 .23-.23c.15 0 .15-.08.23-.08l.38-.38.53-.54a39.63 39.63 0 0 0 5-6.56 108.51 108.51 0 0 0 6-11.22 2.44 2.44 0 0 1 3.13-1.15 2.39 2.39 0 0 1 1.18 3.09Zm-24.66-17.56a4.19 4.19 0 0 1 3.36-4.42 3.78 3.78 0 0 1 4.43 3.05 9.35 9.35 0 0 0 .46 1.6 2.9 2.9 0 0 1-3.06 4.13c-2.9 0-4.96-1.68-5.19-4.36Z"/><path class="cls-2" d="M423.77 156.55c-.23.61-3.59 13.66-12.6 19-4.12 2.52-8.85 2.52-11.45 2.29h-.46a3.57 3.57 0 0 0-.84-.08l-.07-.15h-.15a1.05 1.05 0 0 1-.46-.08h-.08a10.2 10.2 0 0 1-7.79-6.87 24.21 24.21 0 0 1-1.06-11.37c0-.31.15-.69.15-1.15a29.14 29.14 0 0 1 3.51-9.92 15.68 15.68 0 0 1 4.12-4.58c4.35-3.13 9.32-3 13.74.53a7.79 7.79 0 0 1 2.67 4.5 21.81 21.81 0 0 1 .23 3.9 3.89 3.89 0 0 1-1.29 3 2.33 2.33 0 0 1-3.9-.69 22.43 22.43 0 0 1-1-3.2 2.78 2.78 0 0 0-4.35-1.45 5.91 5.91 0 0 0-1.53 1.83A27.91 27.91 0 0 0 398 168a4.55 4.55 0 0 0 4 4.12 9.34 9.34 0 0 0 6.64-1.37 24 24 0 0 0 5.73-4.58 40.43 40.43 0 0 0 4.81-10.61 2.33 2.33 0 0 1 2.82-1.76 2.4 2.4 0 0 1 1.77 2.75Z"/><path class="cls-2" d="M454.84 157.39c-.23.38-5.65 8.62-12.82 10.07a6.07 6.07 0 0 0-.39.69 16.39 16.39 0 0 1-3.66 6.57 21.43 21.43 0 0 1-3.66 3.28 7.48 7.48 0 0 1-8.71.23 10.87 10.87 0 0 1-5.57-9.7 34.18 34.18 0 0 1 .46-4.81 2.65 2.65 0 0 0-.46-2.06c-5.5-7.33-.92-15.27 5-17.56a13.38 13.38 0 0 1 7.33-.76 4.1 4.1 0 0 0 1 .08 4.1 4.1 0 0 1 3.66 1.75 1.35 1.35 0 0 0 .46.46c4.28 3.21 5.65 7.79 6 12.83v2.74a14 14 0 0 0 1.83-.91 17.46 17.46 0 0 0 3.89-3.13c.69-.92 1.38-1.68 1.76-2.29a2.32 2.32 0 1 1 3.89 2.52Zm-18.93 10.3-7-.68a4.26 4.26 0 0 0 1.22 4.5 1.91 1.91 0 0 0 1.38.46c1.65-.23 4.09-2.67 4.4-4.28Zm-6.26-6.64c2.29 1.07 6.87 1.6 8.78 1.07 1.37-4.5-.31-10.53-3.28-11.91a23.59 23.59 0 0 0-5.5 10.84Z"/><path class="cls-2" d="M448.81 144.72a51.48 51.48 0 0 1-6 1.14 8.27 8.27 0 0 1-3.59-.46c-2.82-1.07-3.28-4.27-1-6.33a21.73 21.73 0 0 1 2.37-1.45 29.87 29.87 0 0 1 8.47-3 20.4 20.4 0 0 1 2-.46c.07-1.53.3-2.75.45-4.12.23-1.61.46-3.13.69-4.58a9.1 9.1 0 0 1 .53-2 3.6 3.6 0 0 1 3.36-2.14 3.53 3.53 0 0 1 3.21 2.29 7.94 7.94 0 0 1 .53 2.07c.23 1.68.39 3.51.46 5.26a9 9 0 0 1 .23 1.45 17.55 17.55 0 0 0 2.22-.22 35.59 35.59 0 0 1 4-.08 5.42 5.42 0 0 1 4.59 2.37 3.72 3.72 0 0 1 .38 4.12 3.3 3.3 0 0 1-3.21 1.75 39.16 39.16 0 0 0-7.79 1.38c0 .46-.15.91-.15 1.37.15 8.25.15 16.49.23 24.74a120.52 120.52 0 0 0 1.37 17.4 4.08 4.08 0 0 1 .16 1.38 2.39 2.39 0 0 1-1.61 2.13 2.24 2.24 0 0 1-2.52-.68A7.15 7.15 0 0 1 457 186c-2.67-8.25-5-16.49-5.88-25.2-.46-4.81-.53-9.69-.53-14.5v-2a7.81 7.81 0 0 1-1.78.42Z"/><path class="cls-2" d="M486.29 166a16.36 16.36 0 0 1 .84 15.58 9.33 9.33 0 0 1-7.71 5.72 8.87 8.87 0 0 1-9-4.73 10.12 10.12 0 0 1-.69-8.78 22.42 22.42 0 0 1 3.21-6.18 13.65 13.65 0 0 1 .91-1.38l-1.07-1.07c-1.45-1.6-3-3.2-4.42-4.88a11.72 11.72 0 0 1-2.22-6.64 9.6 9.6 0 0 1 6.11-8.63 9 9 0 0 1 9.92 2.29 11.54 11.54 0 0 1 2.06 3.13 3.52 3.52 0 0 1 .16 2.52 2 2 0 0 1-3.36 1 17.41 17.41 0 0 1-1.15-1.37 4.9 4.9 0 0 0-3.51-2.14 3.75 3.75 0 0 0-3.21 1 1.9 1.9 0 0 0-.45 2.22 7.84 7.84 0 0 0 1.68 2.59c2.21 1.61 4.35 3 6.64 4.35a1.52 1.52 0 0 0 1.3 0 34.16 34.16 0 0 0 8.77-5.34 15.19 15.19 0 0 1 1.84-1.3 2.65 2.65 0 0 1 3.13.92 2.7 2.7 0 0 1-.46 3.43 8.2 8.2 0 0 1-1.3.92c-2.82 1.76-5.57 3.59-8.47 5.27 0 .15-.08.23-.23.38a11.84 11.84 0 0 1 .68 1.12Zm-11.9 9.93a4.48 4.48 0 0 0 .84 3.43 2.57 2.57 0 0 0 2.52 1.3 2.37 2.37 0 0 0 1.83-1.83 15.82 15.82 0 0 0 .3-4.28 7.73 7.73 0 0 0-2.52-5.26 19.64 19.64 0 0 0-2.97 6.65ZM162.68 47.18a40.43 40.43 0 0 0-56.25 4.58c.28.22.57.41.85.63a40.46 40.46 0 0 1 5.36 57c-.23.27-.48.51-.72.78a40.44 40.44 0 0 0 50.76-62.95Z"/><path class="cls-2" d="M150.32 140a40.44 40.44 0 0 0-28.8-48.53c-.08.34-.12.69-.2 1a40.46 40.46 0 0 1-48.83 29.81c-.34-.09-.67-.21-1-.3a40.44 40.44 0 0 0 78.84 18ZM96.84 1.86a40.43 40.43 0 0 0-26.76 49.69c.33-.12.65-.26 1-.37a40.45 40.45 0 0 1 50.7 26.5c.11.34.17.68.26 1a40.44 40.44 0 0 0-25.2-76.82Z"/><path class="cls-3" d="M100.47 162.75a35.67 35.67 0 0 1-24.41-9.52 40.37 40.37 0 0 1-12.79-31.76 2.63 2.63 0 0 1 5.25.3 35.08 35.08 0 0 0 11.1 27.59 30.73 30.73 0 0 0 25.63 7.79 34 34 0 0 0 23-13.46c6-8.21 8.13-19.14 6.11-30.78a2.63 2.63 0 0 1 3-3c12.26 2 24.12-1.28 31.74-8.68 6.09-5.91 8.7-13.74 7.54-22.63a30 30 0 0 0-15.14-21.73c-10.15-5.52-23.54-4.82-38.84 2 5.92 18.63 2 34.77-11 44.56s-31.8 10.32-44.62 1.17c-12.45-8.92-17.4-25.09-12.3-40.25C58.9 52 71.06 38.86 92.62 39.61a2.63 2.63 0 1 1-.15 5.25c-15.86-.6-28.14 7.46-32.75 21.14-4.36 13-.18 26.74 10.39 34.3 10.81 7.73 27.33 7.27 38.39-1.09 11.53-8.7 14.61-23.6 8.45-40.87a2.62 2.62 0 0 1 1.34-3.26c22.44-10.7 37.24-7.45 45.72-2.84a35.39 35.39 0 0 1 17.85 25.61c1.36 10.46-1.87 20.07-9.09 27.08-8.06 7.84-20.07 11.66-32.73 10.54 1.29 11.76-1.33 22.76-7.53 31.28A39.16 39.16 0 0 1 106 162.36a40.09 40.09 0 0 1-5.53.39Z"/><path class="cls-3" d="M45.36 151.4c-11.17 0-22.39-3.68-30.66-10.27a36.53 36.53 0 0 1-14.13-27c-1.36-23.57 18.19-39.53 30.09-45-5.36-12.13-3.91-24.86 4.1-34.51 9-10.8 23.82-14.79 39-10.61 9.87-9 24.94-13 38.88-10.18 12.64 2.58 22.46 10.46 27 21.62a2.63 2.63 0 1 1-4.88 2c-3.87-9.63-12.08-16.18-23.12-18.44-12.84-2.66-26.64 1.21-35.27 9.8a2.57 2.57 0 0 1-2.63.65c-13.67-4.23-27.07-1-34.94 8.52-7.17 8.65-8 20.34-2.23 31.27A2.63 2.63 0 0 1 35.13 73C25 76.56 4.52 91.29 5.81 113.78A31.42 31.42 0 0 0 18 137c9.15 7.31 22.42 10.55 34.63 8.53a2.63 2.63 0 1 1 .87 5.18 48.89 48.89 0 0 1-8.14.69Z"/></svg>