<svg width="99" height="91" fill="none" xmlns="http://www.w3.org/2000/svg"><path d="M87.65 24.893c-4.34-3.56-9.91-5.299-15.524-4.846a21.667 21.667 0 0 0-14.53 7.272c.15.117.305.218.454.334 2.19 1.795 4 4 5.329 6.49a21.26 21.26 0 0 1 1.55 16.343 21.375 21.375 0 0 1-4.015 7.36c-.123.144-.256.27-.385.414a21.741 21.741 0 0 0 15.75 4.352 21.656 21.656 0 0 0 14.316-7.83 21.295 21.295 0 0 0 4.684-15.53 21.366 21.366 0 0 0-7.629-14.338v-.02Z" fill="#FF7B7B"/><path d="M81.046 74.06a21.263 21.263 0 0 0-2.423-15.954 21.586 21.586 0 0 0-12.964-9.752c-.043.18-.064.365-.107.53a21.445 21.445 0 0 1-9.747 13.25 21.778 21.778 0 0 1-16.343 2.54c-.181-.048-.358-.111-.534-.159a21.269 21.269 0 0 0 2.943 15.966 21.604 21.604 0 0 0 13.39 9.337 21.766 21.766 0 0 0 16.15-2.651 21.434 21.434 0 0 0 9.64-13.117l-.005.01ZM52.472.888a21.56 21.56 0 0 0-12.547 10.278 21.252 21.252 0 0 0-1.75 16.043c.176-.064.347-.138.534-.196a21.792 21.792 0 0 1 16.477 1.456 21.58 21.58 0 0 1 6.568 5.244 21.373 21.373 0 0 1 4.044 7.337c.058.18.09.36.138.53A21.544 21.544 0 0 0 78.04 30.822a21.253 21.253 0 0 0 1.115-16.077A21.471 21.471 0 0 0 68.65 2.446 21.775 21.775 0 0 0 52.472.886Z" fill="#FF7B7B"/><path d="M54.412 86.112A19.15 19.15 0 0 1 41.37 81.07a21.38 21.38 0 0 1-5.305-7.658 21.22 21.22 0 0 1-1.529-9.165c.03-.363.201-.7.478-.939a1.413 1.413 0 0 1 1.96.111c.248.269.38.623.367.987a18.438 18.438 0 0 0 1.326 7.96 18.577 18.577 0 0 0 4.605 6.654 16.453 16.453 0 0 0 6.37 3.62c2.371.715 4.875.888 7.324.507a18.273 18.273 0 0 0 6.878-2.322 18.113 18.113 0 0 0 5.41-4.808c3.206-4.35 4.344-10.139 3.265-16.305a1.383 1.383 0 0 1 .395-1.197 1.406 1.406 0 0 1 1.208-.392c6.55 1.06 12.887-.678 16.958-4.598 3.254-3.13 4.649-7.278 4.029-11.987a15.814 15.814 0 0 0-2.694-6.688 15.981 15.981 0 0 0-5.395-4.823c-5.423-2.924-12.578-2.553-20.752 1.06 3.163 9.868 1.068 18.418-5.877 23.604-6.946 5.186-16.991 5.466-23.84.62-6.653-4.726-9.297-13.291-6.572-21.322 2.222-6.541 8.72-13.502 20.239-13.105a1.416 1.416 0 0 1 1.031.41 1.392 1.392 0 0 1 .41 1.023 1.384 1.384 0 0 1-.468.999 1.408 1.408 0 0 1-1.054.35c-8.473-.318-15.035 3.951-17.498 11.197-2.33 6.887-.096 14.165 5.552 18.17 5.775 4.094 14.602 3.85 20.511-.578 6.16-4.608 7.806-12.5 4.515-21.65a1.376 1.376 0 0 1 .021-1c.133-.319.38-.578.695-.726 11.99-5.668 19.897-3.946 24.428-1.504a18.853 18.853 0 0 1 6.358 5.684 18.656 18.656 0 0 1 3.179 7.882c.727 5.54-1 10.63-4.857 14.344-4.306 4.153-10.723 6.177-17.487 5.583.689 6.23-.71 12.057-4.023 16.57a20.861 20.861 0 0 1-6.23 5.57 21.045 21.045 0 0 1-7.935 2.699 21.6 21.6 0 0 1-2.954.206Z" fill="#333" stroke="#333" stroke-miterlimit="10"/><path d="M24.967 80.1c-5.968 0-11.963-1.95-16.381-5.44a19.393 19.393 0 0 1-5.351-6.333 19.223 19.223 0 0 1-2.199-7.97c-.727-12.485 9.719-20.939 16.077-23.836-2.864-6.426-2.09-13.169 2.19-18.28 4.81-5.722 12.727-7.835 20.838-5.621 5.273-4.767 13.325-6.886 20.773-5.392 6.754 1.366 12 5.54 14.426 11.452.142.343.14.727-.004 1.069-.144.342-.42.613-.765.753a1.42 1.42 0 0 1-1.079-.004 1.403 1.403 0 0 1-.76-.759c-2.067-5.1-6.454-8.57-12.352-9.768-6.86-1.409-14.234.641-18.845 5.192a1.376 1.376 0 0 1-1.405.344c-7.304-2.24-14.463-.53-18.668 4.513-3.83 4.582-4.274 10.774-1.192 16.564a1.384 1.384 0 0 1-.253 1.671c-.147.141-.323.249-.516.316-5.412 1.885-16.355 9.688-15.665 21.601a16.534 16.534 0 0 0 1.9 6.856 16.68 16.68 0 0 0 4.613 5.444c4.889 3.872 11.979 5.589 18.502 4.519a1.419 1.419 0 0 1 1.091.204 1.398 1.398 0 0 1 .601.925 1.382 1.382 0 0 1-.263 1.069 1.402 1.402 0 0 1-.964.546 26.34 26.34 0 0 1-4.35.365Z" fill="#333" stroke="#333" stroke-miterlimit="10"/></svg>